<svg xmlns="http://www.w3.org/2000/svg" width="783" height="753" viewBox="0 0 783 753" version="1.1"><path d="M 754 4.929 C 754 6.068, 754.418 6.888, 754.929 6.750 C 755.441 6.613, 756.590 7.400, 757.485 8.500 C 759.050 10.425, 759.065 10.408, 757.897 8.021 C 757.230 6.657, 756.080 4.937, 755.342 4.199 C 754.219 3.076, 754 3.196, 754 4.929 M 13.153 11.728 C 10.869 16.253, 9.022 20.303, 9.049 20.728 C 9.076 21.153, 10.709 18.350, 12.678 14.500 C 14.646 10.650, 16.704 7.215, 17.250 6.866 C 17.797 6.517, 18.033 5.617, 17.775 4.866 C 17.516 4.115, 15.437 7.203, 13.153 11.728 M 755.343 15.500 C 755.346 19.900, 755.522 21.576, 755.733 19.224 C 755.945 16.872, 755.942 13.272, 755.727 11.224 C 755.512 9.176, 755.339 11.100, 755.343 15.500 M 17.218 19 C 17.228 20.375, 17.580 22.850, 18 24.500 L 18.763 27.500 18.782 24.500 C 18.792 22.850, 18.440 20.375, 18 19 L 17.199 16.500 17.218 19 M 6.162 27.543 C 5.523 28.946, 5.032 30.860, 5.070 31.797 C 5.109 32.734, 5.786 31.739, 6.574 29.587 C 8.206 25.133, 7.916 23.694, 6.162 27.543 M 753.556 28.556 C 753.179 30.562, 753.096 32.429, 753.371 32.704 C 753.646 32.979, 754.179 31.562, 754.556 29.556 C 754.932 27.549, 755.015 25.682, 754.740 25.407 C 754.465 25.132, 753.932 26.549, 753.556 28.556 M 21.049 35.347 C 20.973 36.664, 28.787 51.203, 31.075 54 L 33.120 56.500 31.421 53 C 30.486 51.075, 29.392 49.275, 28.989 49 C 28.586 48.725, 26.646 45.350, 24.678 41.500 C 22.709 37.650, 21.076 34.881, 21.049 35.347 M 748.636 44.636 C 747.689 46.623, 747.132 48.466, 747.399 48.732 C 747.665 48.998, 748.590 47.523, 749.455 45.455 C 751.495 40.572, 750.872 39.949, 748.636 44.636 M 1.632 46.090 C 1.284 47.828, 1.055 50.656, 1.122 52.375 C 1.195 54.235, 1.594 53.100, 2.108 49.570 C 3.028 43.260, 2.691 40.795, 1.632 46.090 M 771.702 48 C 772.015 51.025, 772.435 53.688, 772.635 53.917 C 773.336 54.718, 772.793 47.478, 771.966 45 C 771.428 43.386, 771.334 44.449, 771.702 48 M 1.100 65.583 C 1.155 68.287, 1.572 71.625, 2.027 73 C 2.530 74.522, 2.634 72.761, 2.290 68.500 C 1.625 60.237, 0.958 58.604, 1.100 65.583 M 37 61.494 C 37 62.469, 41.966 68.585, 52.250 80.275 C 56.513 85.121, 60 88.728, 60 88.292 C 60 87.566, 57.667 84.803, 48.727 74.939 C 46.952 72.981, 44.375 69.919, 43 68.134 C 38.682 62.528, 37 60.667, 37 61.494 M 738.665 64.078 C 737.686 65.221, 737.064 66.684, 737.282 67.328 C 737.499 67.973, 738.437 67.037, 739.364 65.250 C 741.323 61.477, 741.146 61.181, 738.665 64.078 M 772.160 67.625 C 772.072 69.344, 771.777 72.269, 771.503 74.125 L 771.007 77.500 772.059 74.146 C 772.638 72.301, 772.933 69.376, 772.716 67.646 L 772.320 64.500 772.160 67.625 M 732.972 73.764 C 732.163 74.734, 730.375 77.206, 729 79.257 C 727.625 81.308, 726.163 82.989, 725.750 82.993 C 725.337 82.997, 725 83.575, 725 84.278 C 725 84.981, 724.212 86.293, 723.250 87.193 C 722.288 88.094, 720.481 90.107, 719.236 91.666 C 717.991 93.225, 716.079 95.581, 714.986 96.903 C 712.828 99.514, 712.458 100.453, 713.950 99.531 C 715.156 98.786, 725.543 85.871, 729.500 80.197 C 731.150 77.831, 733.117 75.019, 733.872 73.948 C 735.584 71.518, 734.954 71.389, 732.972 73.764 M 3.481 81.500 C 4.057 86.095, 5.981 93.353, 6.488 92.844 C 6.676 92.655, 5.963 89.125, 4.904 85 C 3.845 80.875, 3.205 79.300, 3.481 81.500 M 769.556 84.556 C 769.179 86.562, 769.071 88.404, 769.315 88.649 C 769.560 88.893, 770.068 87.451, 770.444 85.444 C 770.821 83.438, 770.929 81.596, 770.685 81.351 C 770.440 81.107, 769.932 82.549, 769.556 84.556 M 61.090 89.704 C 61.315 90.345, 64.699 94.387, 68.610 98.685 C 72.520 102.983, 76.894 107.850, 78.328 109.500 C 81.356 112.982, 81.956 112.471, 79.029 108.903 C 71.984 100.317, 60.498 88.024, 61.090 89.704 M 707.500 105.377 C 705.300 107.705, 702.441 111.160, 701.147 113.055 C 699.320 115.730, 699.878 115.376, 703.647 111.472 C 711.136 103.713, 713.432 100.993, 712.424 101.072 C 711.916 101.112, 709.700 103.050, 707.500 105.377 M 11.621 111 C 11.960 112.925, 12.875 115.625, 13.655 117 L 15.073 119.500 14.394 117 C 14.020 115.625, 13.105 112.925, 12.360 111 L 11.006 107.500 11.621 111 M 86 117.707 C 86 118.212, 87.350 119.919, 89 121.500 C 90.650 123.081, 92 124.113, 92 123.793 C 92 123.473, 90.650 121.766, 89 120 C 87.350 118.234, 86 117.202, 86 117.707 M 693.500 121.406 C 689.425 125.763, 688.755 127.378, 692.513 123.783 C 694.651 121.739, 696.197 119.887, 695.950 119.667 C 695.702 119.448, 694.600 120.230, 693.500 121.406 M 759.155 122.250 C 758.639 124.037, 757.914 126.400, 757.545 127.500 C 757.128 128.739, 757.415 128.549, 758.298 127 C 759.834 124.306, 761.338 119, 760.566 119 C 760.306 119, 759.672 120.463, 759.155 122.250 M 15.054 120.500 C 15.041 121.050, 15.679 123.300, 16.471 125.500 C 17.264 127.700, 17.932 128.764, 17.956 127.865 C 17.980 126.965, 17.343 124.715, 16.539 122.865 C 15.736 121.014, 15.067 119.950, 15.054 120.500 M 102 135.498 C 102 135.866, 105.375 139.960, 109.500 144.597 C 113.625 149.233, 117 152.639, 117 152.166 C 117 151.693, 116.100 150.268, 115 149 C 113.900 147.732, 113 146.313, 113 145.847 C 113 145.381, 112.325 145, 111.500 145 C 110.675 145, 109.988 144.662, 109.973 144.250 C 109.940 143.304, 102 134.589, 102 135.498 M 678.649 138.519 C 677.081 140.430, 675.486 141.801, 675.106 141.566 C 674.726 141.331, 674.349 142.016, 674.268 143.088 C 674.158 144.557, 675.085 143.986, 678.034 140.769 C 681.348 137.153, 682.787 134.928, 681.750 135.023 C 681.612 135.036, 680.217 136.609, 678.649 138.519 M 21.064 137 C 21.083 138.468, 24.876 146.121, 24.958 144.859 C 24.981 144.507, 24.110 142.257, 23.022 139.859 C 21.934 137.462, 21.053 136.175, 21.064 137 M 753.218 138.699 C 752.661 140.240, 751.885 142.287, 751.495 143.250 C 751.105 144.213, 751.175 145, 751.650 145 C 752.590 145, 755.357 137.024, 754.659 136.326 C 754.424 136.090, 753.775 137.158, 753.218 138.699 M 666.170 152.716 C 662.777 156.410, 660 159.785, 660 160.216 C 660 160.647, 659.325 161, 658.500 161 C 657.675 161, 657 161.575, 657 162.278 C 657 162.981, 656.100 164.326, 655 165.268 C 653.900 166.210, 653 167.441, 653 168.003 C 653 168.566, 656.455 165.083, 660.679 160.263 C 664.902 155.443, 669.486 150.262, 670.866 148.750 C 672.245 147.238, 673.142 146, 672.858 146 C 672.573 146, 669.564 149.022, 666.170 152.716 M 744.981 157.638 C 741.946 163.887, 739.712 169, 740.017 169 C 740.799 169, 751.495 147.149, 750.948 146.670 C 750.702 146.453, 748.016 151.389, 744.981 157.638 M 118.040 153.691 C 118.061 154.136, 121.504 158.100, 125.690 162.500 C 129.877 166.900, 132.446 169.393, 131.401 168.041 C 130.355 166.688, 129.050 165.003, 128.500 164.297 C 125.967 161.043, 118.004 152.969, 118.040 153.691 M 31.031 159.250 C 31.014 160.213, 31.368 161, 31.819 161 C 32.269 161, 33.365 162.463, 34.255 164.250 C 35.144 166.037, 35.899 167.050, 35.931 166.500 C 35.963 165.950, 34.881 163.700, 33.526 161.500 C 31.998 159.019, 31.051 158.164, 31.031 159.250 M 648.750 172.229 C 647.237 173.891, 646 175.660, 646 176.160 C 646 176.661, 647.410 175.464, 649.133 173.501 C 652.954 169.149, 652.606 167.990, 648.750 172.229 M 39.084 172.250 C 39.764 173.762, 40.627 175, 41 175 C 41.373 175, 42.199 176.142, 42.835 177.538 C 43.471 178.933, 44.459 180.621, 45.030 181.288 C 45.601 181.954, 46.750 183.400, 47.583 184.500 C 48.727 186.012, 48.685 185.645, 47.411 183 C 45.950 179.965, 41.558 173.630, 38.746 170.500 C 38.251 169.950, 38.404 170.738, 39.084 172.250 M 734.538 175.750 C 731.915 179.778, 731.540 180.725, 733.287 178.911 C 735.606 176.505, 739.533 170, 738.667 170 C 738.456 170, 736.598 172.588, 734.538 175.750 M 134 171.535 C 134 172.130, 143.112 182.496, 155.232 195.690 C 157.854 198.545, 160 200.487, 160 200.007 C 160 199.526, 157.863 196.865, 155.250 194.092 C 152.637 191.320, 148.925 187.248, 147 185.044 C 140.702 177.834, 134 170.869, 134 171.535 M 643 177.847 C 643 178.313, 642.100 179.732, 641 181 C 639.900 182.268, 639 183.703, 639 184.188 C 639 184.673, 640.350 183.532, 642 181.653 C 645.178 178.033, 645.622 177, 644 177 C 643.450 177, 643 177.381, 643 177.847 M 728.771 184.250 C 726.141 188.304, 724.915 191, 725.715 190.973 C 726.147 190.957, 727.515 188.932, 728.756 186.473 C 731.165 181.697, 731.172 180.547, 728.771 184.250 M 633.750 189.143 C 631.688 191.366, 630 193.593, 630 194.093 C 630 194.592, 629.397 195, 628.661 195 C 627.924 195, 626.791 196.238, 626.143 197.750 C 625.353 199.593, 627.108 198.191, 631.461 193.500 C 635.034 189.650, 637.967 186.162, 637.979 185.750 C 638.011 184.612, 637.788 184.791, 633.750 189.143 M 723.557 193.250 C 723.347 193.938, 722.687 196.030, 722.088 197.899 C 721.490 199.769, 721.039 202.244, 721.086 203.399 C 721.152 205.020, 721.400 204.814, 722.168 202.500 C 723.488 198.525, 724.834 192, 724.334 192 C 724.116 192, 723.766 192.563, 723.557 193.250 M 13.591 200.038 C 13.967 202.492, 14.916 205.625, 15.701 207 C 16.565 208.515, 16.857 208.712, 16.441 207.500 C 16.063 206.400, 15.359 203.512, 14.876 201.082 C 13.705 195.191, 12.728 194.396, 13.591 200.038 M 21.055 199.674 C 21.086 200.128, 22.436 201.547, 24.055 202.826 C 25.675 204.105, 26.975 204.780, 26.945 204.326 C 26.914 203.872, 25.564 202.453, 23.945 201.174 C 22.325 199.895, 21.025 199.220, 21.055 199.674 M 758.500 201 C 758.151 202.100, 757.446 203, 756.933 203 C 756.420 203, 756.015 203.563, 756.033 204.250 C 756.052 204.938, 757.011 204.375, 758.165 203 C 759.320 201.625, 760.655 200.613, 761.132 200.750 C 761.610 200.887, 762 200.550, 762 200 C 762 198.159, 759.143 198.975, 758.500 201 M 161.021 201.686 C 161.047 202.677, 173.918 216.766, 173.966 215.856 C 173.985 215.501, 172.635 213.701, 170.967 211.856 C 162.300 202.265, 161.002 200.938, 161.021 201.686 M 619.996 205.196 C 618.073 207.416, 615.263 210.578, 613.750 212.222 C 611.147 215.052, 610.546 216, 611.354 216 C 612.040 216, 624.232 201.899, 623.864 201.531 C 623.660 201.326, 621.919 202.975, 619.996 205.196 M 52.079 205.597 C 51.896 208.140, 48.210 210.874, 44.445 211.260 L 40.500 211.664 44.576 211.832 C 47.733 211.962, 49.166 211.452, 50.933 209.571 C 52.188 208.236, 52.977 206.548, 52.686 205.821 C 52.396 205.095, 52.122 204.994, 52.079 205.597 M 382 207.990 C 379.337 208.558, 380.513 208.768, 386.917 208.868 C 391.546 208.941, 395.146 208.833, 394.917 208.628 C 393.920 207.739, 385.196 207.307, 382 207.990 M 354.500 210 C 352.678 210.783, 352.722 210.859, 355 210.856 C 356.375 210.853, 359.525 210.491, 362 210.051 L 366.500 209.250 361.500 209.195 C 358.750 209.165, 355.600 209.527, 354.500 210 M 407.083 209.367 C 407.313 209.570, 410.425 210.033, 414 210.397 C 418.525 210.858, 420.044 210.751, 419 210.045 C 417.655 209.135, 406.074 208.477, 407.083 209.367 M 17.093 211 C 17.094 212.446, 22.857 224.135, 22.953 222.886 C 22.979 222.548, 21.671 219.398, 20.046 215.886 C 18.421 212.374, 17.092 210.175, 17.093 211 M 340.500 212 C 339.780 213.166, 343.361 213.166, 347 212 C 349.135 211.316, 348.888 211.185, 345.309 211.100 C 343.004 211.045, 340.840 211.450, 340.500 212 M 427 212 C 430.599 213.153, 433 213.153, 433 212 C 433 211.450, 431.087 211.045, 428.750 211.100 C 425.140 211.184, 424.876 211.320, 427 212 M 721.615 212.440 C 723.071 216.232, 729.189 217.860, 735 216.001 C 736.786 215.429, 735.834 215.243, 731.663 215.350 C 726.713 215.477, 725.548 215.158, 724.002 213.250 C 721.930 210.692, 720.797 210.308, 721.615 212.440 M 331.500 214 C 330.711 215.277, 334.024 215.277, 336 214 C 337.173 213.242, 336.914 213.027, 334.809 213.015 C 333.329 213.007, 331.840 213.450, 331.500 214 M 437.500 214 C 438.600 214.473, 440.400 214.884, 441.500 214.914 C 443.151 214.960, 443.238 214.800, 442 214 C 441.175 213.467, 439.375 213.055, 438 213.086 C 435.710 213.136, 435.668 213.213, 437.500 214 M 323.500 216 C 322.762 217.194, 324.722 217.194, 327.500 216 C 329.286 215.233, 329.212 215.133, 326.809 215.070 C 325.329 215.032, 323.840 215.450, 323.500 216 M 756 215.211 C 756 215.511, 755.319 217.386, 754.487 219.378 C 753.654 221.370, 753.198 223, 753.473 223 C 754.265 223, 757.083 215.750, 756.513 215.180 C 756.231 214.898, 756 214.912, 756 215.211 M 175 217.416 C 175 217.889, 176.853 220.287, 179.119 222.745 C 181.384 225.202, 182.960 226.603, 182.620 225.857 C 182.279 225.110, 181.724 223.713, 181.384 222.750 C 181.045 221.787, 180.170 221, 179.440 221 C 178.710 221, 177.413 220, 176.557 218.777 C 175.701 217.555, 175 216.942, 175 217.416 M 606 221.132 C 604.075 223.280, 600.925 226.775, 599 228.898 C 597.075 231.021, 594.838 233.712, 594.029 234.879 C 593.220 236.045, 591.983 237, 591.279 237 C 590.576 237, 590 237.385, 590 237.856 C 590 238.327, 588.370 240.915, 586.378 243.606 C 583.511 247.479, 583.357 247.874, 585.638 245.500 C 591.979 238.901, 610.210 217.879, 609.867 217.563 C 609.665 217.377, 607.925 218.983, 606 221.132 M 23 224.634 C 23 226.239, 25.445 230.984, 26.276 230.992 C 26.702 230.996, 26.308 229.537, 25.399 227.750 C 23.447 223.912, 23 223.332, 23 224.634 M 751.076 227.299 C 750.538 228.716, 748.943 232.153, 747.532 234.938 C 746.121 237.722, 745.193 240, 745.471 240 C 746.320 240, 753.165 225.831, 752.592 225.259 C 752.297 224.964, 751.615 225.882, 751.076 227.299 M 184.035 227.724 C 184.055 228.151, 187.483 232.100, 191.652 236.500 C 196.314 241.419, 197.937 242.768, 195.867 240.003 C 192.073 234.935, 183.981 226.537, 184.035 227.724 M 492.279 231.612 C 493.123 232.457, 503 236.996, 503 236.539 C 503 235.933, 493.834 231, 492.707 231 C 492.135 231, 491.942 231.276, 492.279 231.612 M 269 237 C 265.743 239.547, 267.050 239.549, 271.226 237.004 C 273.027 235.906, 273.825 235.016, 273 235.026 C 272.175 235.036, 270.375 235.924, 269 237 M 263 240 C 263 240.550, 262.325 241, 261.500 241 C 260.675 241, 260 241.462, 260 242.026 C 260 242.610, 261.292 242.383, 263 241.500 C 266.310 239.788, 266.783 239, 264.500 239 C 263.675 239, 263 239.450, 263 240 M 36.179 247.353 C 40.747 254.054, 66.586 279.748, 67.668 278.665 C 67.934 278.399, 65.980 276.236, 63.326 273.857 C 56.154 267.431, 38.851 250.010, 35.658 246 C 33.730 243.579, 33.890 243.996, 36.179 247.353 M 362.500 244 L 358.500 244.716 363 244.800 C 365.475 244.847, 369.300 244.512, 371.500 244.057 L 375.500 243.230 371 243.257 C 368.525 243.272, 364.700 243.606, 362.500 244 M 400 244 C 401.375 244.440, 405.200 244.789, 408.500 244.775 L 414.500 244.750 410 243.949 C 407.525 243.509, 403.700 243.160, 401.500 243.174 C 398.066 243.196, 397.854 243.313, 400 244 M 200 245.707 C 200 246.212, 201.350 247.919, 203 249.500 C 204.650 251.081, 206 252.113, 206 251.793 C 206 251.473, 204.650 249.766, 203 248 C 201.350 246.234, 200 245.202, 200 245.707 M 349 246 C 346.550 246.785, 346.560 246.802, 349.500 246.885 C 351.150 246.931, 353.175 246.533, 354 246 C 355.236 245.201, 355.148 245.045, 353.500 245.115 C 352.400 245.161, 350.375 245.560, 349 246 M 420 246 C 420.825 246.533, 422.850 246.931, 424.500 246.885 C 427.440 246.802, 427.450 246.785, 425 246 C 423.625 245.560, 421.600 245.161, 420.500 245.115 C 418.852 245.045, 418.764 245.201, 420 246 M 739.628 248.446 C 738.746 249.791, 735.919 253.503, 733.345 256.696 C 730.770 259.888, 729.738 261.600, 731.051 260.500 C 734.763 257.390, 735.404 256.693, 737.263 253.750 C 738.218 252.238, 739.727 249.875, 740.615 248.500 C 741.503 247.125, 742.005 246, 741.730 246 C 741.455 246, 740.509 247.101, 739.628 248.446 M 339 248 C 336.631 248.759, 336.671 248.806, 339.750 248.900 C 341.538 248.955, 343 248.550, 343 248 C 343 246.870, 342.529 246.870, 339 248 M 330.500 250 C 328.714 250.767, 328.788 250.867, 331.191 250.930 C 332.671 250.968, 334.160 250.550, 334.500 250 C 335.238 248.806, 333.278 248.806, 330.500 250 M 323.500 252 C 321.714 252.767, 321.788 252.867, 324.191 252.930 C 325.671 252.968, 327.160 252.550, 327.500 252 C 328.238 250.806, 326.278 250.806, 323.500 252 M 239.500 255 C 238.505 256.100, 237.278 257, 236.774 257 C 235.742 257, 233 259.526, 233 260.477 C 233 261.253, 241.678 255.330, 242.508 253.987 C 243.615 252.196, 241.346 252.960, 239.500 255 M 304 258.777 C 300.893 260.210, 300.750 260.433, 302.721 260.761 C 304.004 260.975, 305.880 260.258, 307.160 259.066 C 309.768 256.636, 308.830 256.550, 304 258.777 M 230.667 261.667 C 229.236 263.097, 230.223 264.770, 236.181 271.018 C 242.810 277.970, 242.279 276.628, 235.220 268.591 C 232.848 265.891, 231.140 263.078, 231.423 262.341 C 231.985 260.876, 231.706 260.627, 230.667 261.667 M 545.852 264.823 C 549.730 268.175, 550.030 268.730, 548.602 269.915 C 547.721 270.646, 547 271.709, 547 272.275 C 547 272.842, 547.900 272.268, 549 271 C 551.551 268.059, 551.528 267.869, 548.335 265.487 C 546.869 264.394, 545.101 262.938, 544.406 262.250 C 543.711 261.563, 542.773 261.013, 542.321 261.030 C 541.870 261.046, 543.459 262.753, 545.852 264.823 M 216 263.741 C 216 264.228, 217.455 265.948, 219.234 267.563 C 221.829 269.919, 222.076 270.012, 220.484 268.031 C 217.232 263.985, 216 262.806, 216 263.741 M 1.047 269.500 C 1.034 271.799, 1.257 272.149, 2 271 C 2.862 269.667, 2.972 269.667, 2.990 271 C 3.001 271.825, 4.139 273.850, 5.518 275.500 L 8.026 278.500 6.852 275.750 C 6.207 274.238, 5.301 273, 4.839 273 C 4.378 273, 4 272.411, 4 271.691 C 4 270.971, 3.339 269.509, 2.532 268.441 C 1.135 266.595, 1.063 266.647, 1.047 269.500 M 562.750 270.229 C 561.237 271.891, 560 273.660, 560 274.160 C 560 274.661, 561.410 273.464, 563.133 271.501 C 566.954 267.149, 566.606 265.990, 562.750 270.229 M 491 269.883 C 491 270.369, 491.788 271.045, 492.750 271.384 C 493.712 271.724, 495.175 272.259, 496 272.575 C 496.825 272.890, 496.375 272.225, 495 271.096 C 492.300 268.880, 491 268.486, 491 269.883 M 715 275.055 C 711.425 278.288, 708.858 280.948, 709.295 280.967 C 709.733 280.985, 711.139 279.988, 712.420 278.750 C 716.120 275.175, 718.951 273, 719.904 273 C 720.753 273, 722.333 269.995, 721.774 269.445 C 721.623 269.298, 718.575 271.822, 715 275.055 M 274.212 273.602 C 268.727 276.872, 268.756 277.799, 274.250 274.835 C 279.620 271.938, 279.416 272.083, 278.878 271.545 C 278.628 271.295, 276.528 272.220, 274.212 273.602 M 769.931 276.134 C 768.771 278.408, 766.737 281.354, 765.411 282.680 C 764.085 284.006, 763 285.536, 763 286.080 C 763 287.742, 768.596 280.766, 770.886 276.250 C 772.071 273.913, 772.816 272, 772.541 272 C 772.266 272, 771.092 273.860, 769.931 276.134 M 542.750 276.543 C 541.237 278.320, 540 280.066, 540 280.422 C 540 280.778, 541.410 279.464, 543.133 277.501 C 544.856 275.539, 546.094 273.793, 545.883 273.622 C 545.672 273.451, 544.263 274.765, 542.750 276.543 M 9 279.904 C 9 280.291, 10.575 282.134, 12.500 284 C 14.425 285.866, 16 287.124, 16 286.796 C 16 286.468, 14.425 284.625, 12.500 282.700 C 10.575 280.775, 9 279.517, 9 279.904 M 69 279.358 C 69 280.389, 74.029 285.305, 74.550 284.783 C 74.786 284.547, 73.634 283.065, 71.990 281.490 C 70.345 279.915, 69 278.955, 69 279.358 M 771.600 284.100 C 771.234 286.392, 771.129 288.462, 771.368 288.701 C 771.606 288.940, 772.116 287.274, 772.500 285 C 772.884 282.726, 772.989 280.655, 772.732 280.399 C 772.476 280.143, 771.966 281.808, 771.600 284.100 M 234.029 283.717 C 234.045 284.147, 237.458 288.100, 241.614 292.500 C 247.247 298.463, 248.067 299.111, 244.836 295.045 C 239.735 288.628, 233.988 282.603, 234.029 283.717 M 514.012 283.682 C 514.019 284.132, 515.643 285.549, 517.621 286.830 C 519.599 288.112, 520.930 288.696, 520.579 288.127 C 519.601 286.546, 513.998 282.753, 514.012 283.682 M 547.500 287.455 C 545.300 289.740, 542.437 293.160, 541.138 295.055 L 538.777 298.500 542.054 295 C 543.856 293.075, 546.914 289.821, 548.850 287.768 C 550.786 285.716, 552.174 283.871, 551.935 283.669 C 551.696 283.466, 549.700 285.170, 547.500 287.455 M 532.185 288.645 L 528.215 293.289 525.108 291.077 C 521.982 288.851, 520.906 289.048, 523.271 291.413 C 525.123 293.266, 529 295.202, 529 294.275 C 529 293.837, 530.013 292.341, 531.250 290.950 C 536.142 285.451, 537.287 284, 536.733 284 C 536.415 284, 534.369 286.090, 532.185 288.645 M 250.365 286.332 C 250.714 287.339, 251 288.352, 251 288.582 C 251 289.593, 254.274 288.869, 255.571 287.571 C 257.814 285.329, 257.241 284.472, 254.910 286.582 C 252.857 288.439, 252.791 288.437, 251.275 286.487 C 249.915 284.737, 249.807 284.719, 250.365 286.332 M 698.937 287.980 C 697.047 289.596, 696.063 290.937, 696.750 290.959 C 697.438 290.982, 698 290.550, 698 290 C 698 289.450, 698.482 289, 699.071 289 C 700.347 289, 703.426 286.093, 702.806 285.473 C 702.569 285.236, 700.828 286.364, 698.937 287.980 M 758.250 289.525 C 757.013 290.847, 756 292.204, 756 292.540 C 756 293.401, 761.877 288.665, 761.945 287.750 C 762.047 286.368, 760.519 287.102, 758.250 289.525 M 5 289.314 C 5 290.583, 11.441 303, 12.099 303 C 12.468 303, 11.177 299.962, 9.230 296.250 C 5.451 289.041, 5 288.302, 5 289.314 M 769.345 293.500 C 768.731 295.700, 767.496 299.188, 766.601 301.250 C 765.677 303.379, 765.411 305, 765.987 305 C 766.544 305, 767 304.307, 767 303.460 C 767 302.613, 767.927 300.104, 769.059 297.883 C 770.192 295.663, 770.971 292.869, 770.790 291.673 C 770.544 290.043, 770.183 290.499, 769.345 293.500 M 83 291.419 C 83 292.551, 90.251 299.082, 90.847 298.486 C 91.115 298.219, 91.141 297.887, 90.906 297.750 C 90.670 297.613, 88.795 295.949, 86.739 294.054 C 84.683 292.158, 83 290.973, 83 291.419 M 748.250 296.360 C 747.013 296.973, 746 297.829, 746 298.263 C 746 298.697, 747.350 298.353, 749 297.500 C 750.650 296.647, 752 295.735, 752 295.474 C 752 294.802, 750.847 295.074, 748.250 296.360 M 685.090 298.073 C 683.765 299.177, 681.968 300.478, 681.098 300.965 C 680.211 301.461, 679.903 302.212, 680.395 302.675 C 680.878 303.129, 681.475 302.938, 681.720 302.250 C 681.966 301.563, 682.600 301, 683.129 301 C 683.658 301, 685.216 299.875, 686.591 298.500 C 689.569 295.522, 688.515 295.222, 685.090 298.073 M 533.500 303.455 C 529.586 307.521, 524.562 314, 525.324 314 C 525.988 314, 538.256 299.919, 537.868 299.602 C 537.666 299.437, 535.700 301.170, 533.500 303.455 M 250.039 301.668 C 250.061 302.126, 253.026 305.650, 256.628 309.500 C 260.230 313.350, 262.828 315.844, 262.401 315.042 C 260.792 312.020, 249.975 300.317, 250.039 301.668 M 671.604 309.052 C 667.972 312.449, 665 315.569, 665 315.985 C 665 316.400, 667.362 314.404, 670.250 311.548 C 673.138 308.693, 676.396 305.860, 677.492 305.253 C 678.587 304.647, 679.196 303.863, 678.845 303.512 C 678.495 303.161, 675.236 305.654, 671.604 309.052 M 13.510 306.032 C 14.091 307.861, 19 313.585, 19 312.433 C 19 311.703, 13.793 304, 13.300 304 C 13.061 304, 13.155 304.914, 13.510 306.032 M 99 305.330 C 99 306.349, 106.036 313.298, 106.548 312.785 C 106.777 312.557, 105.172 310.620, 102.982 308.482 C 100.792 306.344, 99 304.925, 99 305.330 M 67.500 308 C 70.278 309.194, 72.238 309.194, 71.500 308 C 71.160 307.450, 69.671 307.032, 68.191 307.070 C 65.788 307.133, 65.714 307.233, 67.500 308 M 760.389 313.250 C 758.394 317.148, 753.982 322.937, 748.516 328.827 C 746.307 331.206, 744.324 333.648, 744.108 334.252 C 743.528 335.878, 749.977 329.177, 753.974 324 C 755.885 321.525, 757.737 319.275, 758.090 319 C 759.034 318.264, 763.126 310, 762.546 310 C 762.274 310, 761.303 311.462, 760.389 313.250 M 83 312 C 84.957 313.264, 87 313.264, 87 312 C 87 311.450, 85.763 311.007, 84.250 311.015 C 82.107 311.027, 81.831 311.245, 83 312 M 702.500 312 C 701.762 313.194, 703.722 313.194, 706.500 312 C 708.286 311.233, 708.212 311.133, 705.809 311.070 C 704.329 311.032, 702.840 311.450, 702.500 312 M 519.301 319.876 C 516.991 322.419, 513.518 326.300, 511.584 328.500 C 509.649 330.700, 506.701 334.010, 505.033 335.856 C 503.365 337.701, 502.005 339.501, 502.011 339.856 C 502.023 340.590, 506.262 336.133, 516.886 324.218 C 520.947 319.663, 524.096 315.782, 523.885 315.594 C 523.673 315.406, 521.610 317.333, 519.301 319.876 M 112.669 318.844 C 113.094 320.468, 112.785 321, 111.417 321 C 109.923 321, 109.836 321.222, 110.925 322.250 C 111.985 323.250, 112.342 323.250, 112.708 322.250 C 113.252 320.767, 116 320.558, 116 322 C 116 322.550, 115.523 323, 114.941 323 C 114.359 323, 114.190 323.498, 114.566 324.107 C 115.053 324.894, 115.470 324.857, 116.013 323.979 C 116.433 323.299, 117.325 323.083, 117.995 323.497 C 118.949 324.087, 118.951 324.413, 118 325 C 117.133 325.536, 117.102 325.945, 117.893 326.434 C 118.502 326.810, 119 326.615, 119 326 C 119 325.385, 119.450 325.160, 120 325.500 C 122.001 326.737, 120.907 325.325, 116.553 321.052 C 113.156 317.718, 112.239 317.197, 112.669 318.844 M 24.500 319.953 C 30.978 327.900, 43.944 341.389, 44.536 340.797 C 44.713 340.621, 39.826 335.307, 33.678 328.988 C 27.530 322.670, 23.400 318.604, 24.500 319.953 M 266.090 319.649 C 266.315 320.260, 269.695 324.302, 273.599 328.630 C 277.504 332.959, 282.791 338.878, 285.349 341.783 C 287.907 344.689, 290 346.638, 290 346.115 C 290 345.591, 288.313 343.335, 286.250 341.100 C 284.188 338.866, 280.925 335.218, 279 332.993 C 273.068 326.138, 265.657 318.478, 266.090 319.649 M 656 326.161 C 649.544 334.369, 648.829 335.813, 652.375 333.490 C 653.809 332.550, 654.717 331.350, 654.391 330.824 C 654.066 330.297, 655.693 327.620, 658.008 324.875 C 660.323 322.130, 662.056 319.723, 661.859 319.526 C 661.661 319.329, 659.025 322.315, 656 326.161 M 657.500 329.181 L 655.500 331.243 658.750 329.596 C 662.147 327.874, 662.869 326.959, 660.750 327.059 C 660.063 327.092, 658.600 328.047, 657.500 329.181 M 355.656 331.750 C 355.402 332.163, 358.038 332.508, 361.513 332.518 C 364.988 332.528, 367.618 332.190, 367.357 331.768 C 366.744 330.777, 356.265 330.761, 355.656 331.750 M 350.645 334.750 C 344.733 340.816, 343.404 344.454, 347 344.725 C 349.130 344.885, 349.775 343.425, 347.857 342.786 C 346.307 342.269, 348.484 338.220, 351.907 335.251 C 353.333 334.014, 354.016 333.002, 353.425 333.001 C 352.834 333.001, 351.583 333.788, 350.645 334.750 M 370 333.474 C 370 333.735, 371.350 334.647, 373 335.500 C 374.708 336.383, 376 336.610, 376 336.026 C 376 335.462, 375.325 335, 374.500 335 C 373.675 335, 373 334.550, 373 334 C 373 333.450, 372.325 333, 371.500 333 C 370.675 333, 370 333.213, 370 333.474 M 738.482 339.018 C 736.344 341.208, 735.135 343, 735.797 343 C 736.459 343, 737 342.550, 737 342 C 737 341.450, 737.675 341, 738.500 341 C 739.325 341, 740 340.582, 740 340.071 C 740 339.561, 740.729 338.414, 741.619 337.524 C 742.510 336.633, 743.043 335.709, 742.804 335.471 C 742.565 335.232, 740.620 336.828, 738.482 339.018 M 379.962 340.041 C 382.953 342.597, 384.178 342.983, 388.962 342.878 L 394.500 342.756 388.502 341.883 C 385.203 341.403, 382.353 340.558, 382.168 340.005 C 381.984 339.452, 381.196 339, 380.417 339 C 379.637 339, 379 338.550, 379 338 C 379 337.450, 378.438 337.018, 377.750 337.041 C 377.063 337.063, 378.058 338.413, 379.962 340.041 M 46 341.479 C 46 342.467, 50.820 347, 51.871 347 C 52.400 347, 53.034 347.563, 53.280 348.250 C 53.525 348.938, 54.024 349.226, 54.388 348.891 C 54.753 348.556, 53.014 346.614, 50.525 344.574 C 48.036 342.535, 46 341.142, 46 341.479 M 352.232 342.868 C 353.735 343.216, 355.877 344.288, 356.994 345.250 C 359.214 347.165, 360 347.417, 360 346.216 C 360 344.860, 354.298 341.995, 351.846 342.118 C 349.703 342.226, 349.736 342.291, 352.232 342.868 M 291 347.570 C 291 348.205, 298.931 357.257, 307.839 366.788 C 310.775 369.929, 312.125 370.992, 310.839 369.150 C 309.553 367.307, 306.560 363.707, 304.189 361.150 C 292.802 348.867, 291 347.011, 291 347.570 M 407.666 350.250 C 409.348 352.038, 413.325 356.999, 416.503 361.276 C 419.681 365.553, 422.543 368.791, 422.862 368.472 C 423.181 368.152, 422.983 367.578, 422.423 367.196 C 421.862 366.813, 420.315 364.925, 418.985 363 C 417.654 361.075, 415.989 358.905, 415.283 358.179 C 414.577 357.452, 414 356.552, 414 356.178 C 414 355.169, 406.363 347, 405.419 347 C 404.973 347, 405.984 348.462, 407.666 350.250 M 494 347.840 C 494 348.738, 489.305 354.385, 482 362.274 C 479.525 364.947, 477.050 367.677, 476.500 368.341 C 463.795 383.679, 464.106 384.164, 477.130 369.323 C 482.284 363.451, 487.755 357.264, 489.289 355.573 C 493.766 350.640, 496.219 347, 495.068 347 C 494.481 347, 494 347.378, 494 347.840 M 56 349.573 C 56 350.553, 58.805 353, 59.929 353 C 60.518 353, 61 353.450, 61 354 C 61 354.550, 61.638 355, 62.417 355 C 63.196 355, 64.034 355.563, 64.280 356.250 C 64.525 356.938, 65.032 357.218, 65.405 356.874 C 65.779 356.530, 63.816 354.618, 61.042 352.626 C 58.269 350.633, 56 349.260, 56 349.573 M 365.499 352.500 C 369.046 362.812, 369.964 366.785, 369.525 369.921 L 369.023 373.500 370.072 370.128 C 370.915 367.415, 370.719 365.459, 369.071 360.128 C 367.943 356.482, 366.523 352.825, 365.916 352 C 365.017 350.779, 364.939 350.872, 365.499 352.500 M 67 357.974 C 67 358.538, 67.638 359, 68.417 359 C 69.196 359, 70.006 359.517, 70.217 360.150 C 70.427 360.783, 71.252 361.080, 72.050 360.811 C 73.031 360.481, 72.448 359.777, 70.250 358.636 C 68.459 357.706, 67 357.409, 67 357.974 M 95 372 C 95 372.550, 95.675 373, 96.500 373 C 97.325 373, 98 373.450, 98 374 C 98 374.550, 98.514 375, 99.142 375 C 101.065 375, 106.200 381.042, 105.579 382.573 C 103.868 386.790, 103.837 387.389, 105.441 385.240 C 107.724 382.181, 106.782 379.859, 101.303 375.036 C 96.685 370.970, 95 370.159, 95 372 M 316.035 375.717 C 316.055 376.147, 319.478 380.100, 323.642 384.500 C 329.229 390.403, 330.071 391.070, 326.856 387.045 C 321.714 380.605, 315.985 374.608, 316.035 375.717 M 367.556 378.556 C 367.179 380.562, 367.071 382.404, 367.315 382.649 C 367.560 382.893, 368.068 381.451, 368.444 379.444 C 368.821 377.438, 368.929 375.596, 368.685 375.351 C 368.440 375.107, 367.932 376.549, 367.556 378.556 M 676.500 378 C 674.919 379.650, 673.939 381, 674.322 381 C 674.705 381, 676.431 379.650, 678.157 378 C 679.884 376.350, 680.864 375, 680.335 375 C 679.807 375, 678.081 376.350, 676.500 378 M 415.189 381.039 C 412.867 383.202, 412.727 384.024, 414 388 C 414.684 390.135, 414.815 389.888, 414.900 386.309 C 414.955 384.004, 415.433 381.850, 415.962 381.523 C 416.492 381.196, 419.012 380.887, 421.563 380.835 C 424.548 380.775, 425.720 380.437, 424.851 379.886 C 422.425 378.350, 417.436 378.945, 415.189 381.039 M 432.342 382.361 C 432.861 383.780, 432.651 384.080, 431.459 383.623 C 430.506 383.257, 430.151 383.435, 430.549 384.080 C 430.908 384.661, 431.777 384.916, 432.479 384.646 C 433.182 384.377, 434.261 384.661, 434.878 385.278 C 435.609 386.009, 436 386.036, 436 385.355 C 436 384.780, 435.024 383.453, 433.830 382.405 C 431.746 380.575, 431.688 380.573, 432.342 382.361 M 463.362 383.299 C 459.824 387.368, 459.641 388.588, 463.065 385.282 C 464.898 383.512, 466.161 381.828, 465.873 381.539 C 465.584 381.251, 464.454 382.043, 463.362 383.299 M 365.556 388.556 C 365.179 390.562, 365.071 392.404, 365.315 392.649 C 365.560 392.893, 366.068 391.451, 366.444 389.444 C 366.821 387.438, 366.929 385.596, 366.685 385.351 C 366.440 385.107, 365.932 386.549, 365.556 388.556 M 91.500 390 C 90.708 391.282, 95.017 391.282, 97 390 C 98.141 389.262, 97.737 389.027, 95.309 389.015 C 93.554 389.007, 91.840 389.450, 91.500 390 M 332 393.780 C 332 394.259, 333.125 395.708, 334.500 397 C 335.875 398.292, 337 399.025, 337 398.629 C 337 398.233, 335.875 396.784, 334.500 395.409 C 333.125 394.034, 332 393.301, 332 393.780 M 699.405 394.847 C 699.997 395.804, 695.945 399.823, 691.613 402.575 C 690.026 403.584, 689.203 404.568, 689.785 404.762 C 690.844 405.115, 692.659 403.824, 698.100 398.849 C 701.045 396.157, 701.864 394, 699.941 394 C 699.359 394, 699.118 394.381, 699.405 394.847 M 363.624 396.539 C 363.281 397.432, 363.041 399.139, 363.090 400.332 C 363.154 401.868, 363.462 401.521, 364.147 399.140 C 365.143 395.679, 364.734 393.645, 363.624 396.539 M 686.250 395.728 C 688.313 395.944, 691.688 395.944, 693.750 395.728 C 695.813 395.513, 694.125 395.336, 690 395.336 C 685.875 395.336, 684.188 395.513, 686.250 395.728 M 84.008 399.724 C 84.017 400.637, 89.162 403.172, 89.770 402.563 C 89.999 402.335, 88.794 401.428, 87.093 400.548 C 85.392 399.668, 84.004 399.298, 84.008 399.724 M 446.750 402.235 C 445.238 403.917, 444 405.752, 444 406.313 C 444 406.874, 444.113 407.141, 444.250 406.906 C 444.387 406.670, 446.051 404.795, 447.946 402.739 C 449.842 400.683, 450.967 399.040, 450.446 399.089 C 449.926 399.137, 448.262 400.553, 446.750 402.235 M 361.455 407.455 C 361.072 410.005, 360.984 412.317, 361.259 412.592 C 361.534 412.867, 362.072 411.005, 362.455 408.455 C 362.837 405.904, 362.925 403.592, 362.650 403.317 C 362.375 403.042, 361.837 404.904, 361.455 407.455 M 419.115 410 C 419.161 410.825, 419.560 412.625, 420 414 L 420.801 416.500 420.885 414 C 420.931 412.625, 420.533 410.825, 420 410 C 419.138 408.667, 419.040 408.667, 419.115 410 M 350.043 413.750 C 350.066 414.163, 351.816 416.470, 353.930 418.878 C 357.682 423.150, 360.084 423.676, 359.921 420.191 C 359.872 419.150, 359.648 418.980, 359.338 419.750 C 358.557 421.685, 356.206 421.226, 355.500 419 C 355.151 417.900, 354.476 417, 354 417 C 353.524 417, 352.849 416.100, 352.500 415 C 351.903 413.118, 349.950 412.125, 350.043 413.750 M 432.750 418.229 C 431.238 419.891, 430 421.660, 430 422.160 C 430 422.661, 431.410 421.464, 433.133 419.501 C 436.954 415.149, 436.606 413.990, 432.750 418.229 M 130 418 C 130 418.550, 131.238 418.993, 132.750 418.985 C 134.893 418.973, 135.169 418.755, 134 418 C 132.043 416.736, 130 416.736, 130 418 M 660 418.866 C 655.647 420.427, 655.597 420.491, 658.471 420.828 C 660.105 421.019, 661.605 420.686, 661.804 420.088 C 662.004 419.489, 663.029 419, 664.083 419 C 665.138 419, 666 418.550, 666 418 C 666 416.784, 665.675 416.831, 660 418.866 M 422.612 425 C 423.455 429.747, 423.662 429.821, 426.780 426.486 C 428.558 424.586, 428.718 424.227, 427.244 425.450 C 424.732 427.533, 424.536 427.463, 423.042 423.963 C 422.118 421.800, 422.066 421.926, 422.612 425 M 174 433.474 C 174 434.059, 179.598 437.001, 180.700 436.996 C 181.140 436.994, 180.027 436.094, 178.226 434.996 C 174.878 432.955, 174 432.639, 174 433.474 M 113.134 439.303 C 113.335 440.294, 113.801 440.969, 114.169 440.803 C 114.538 440.636, 116 441.591, 117.419 442.924 C 118.839 444.258, 120 445.013, 120 444.603 C 120 443.841, 119.210 443.018, 115.103 439.500 C 112.959 437.664, 112.798 437.648, 113.134 439.303 M 658.250 440.974 C 655.645 443.410, 655.108 445.985, 657.644 443.880 C 659.113 442.661, 659.216 442.781, 658.608 445.008 C 657.970 447.342, 658.028 447.322, 659.526 444.692 C 660.405 443.148, 660.984 441.206, 660.812 440.377 C 660.558 439.152, 660.079 439.264, 658.250 440.974 M 115.116 445 C 115.098 445.825, 115.946 448.075, 117 450 C 119.437 454.452, 119.437 452.765, 117 447.500 C 115.982 445.300, 115.134 444.175, 115.116 445 M 582 448.045 C 579.287 449.804, 578.195 450.970, 579.250 450.981 C 580.212 450.992, 581 450.550, 581 450 C 581 449.450, 581.694 449, 582.542 449 C 583.390 449, 585.050 448.100, 586.230 447 C 589.304 444.136, 587.246 444.645, 582 448.045 M 200 449.763 C 200 450.257, 201.125 451.264, 202.500 452 C 203.875 452.736, 205 453.889, 205 454.562 C 205 455.800, 207.186 457.019, 209.332 456.978 C 209.974 456.966, 209.375 456.053, 208 454.950 C 202.451 450.498, 200 448.908, 200 449.763 M 136 452 C 137.375 452.440, 140.075 452.814, 142 452.830 C 144.823 452.854, 145.113 452.693, 143.500 452 C 142.400 451.527, 139.700 451.154, 137.500 451.170 C 134.063 451.195, 133.852 451.312, 136 452 M 157 451.927 C 154.525 452.271, 161.837 452.541, 173.249 452.527 C 184.661 452.512, 193.998 452.163, 193.999 451.750 C 194 450.868, 163.559 451.014, 157 451.927 M 653.846 456.070 C 652.400 458.782, 651.529 461, 651.909 461 C 652.666 461, 657.284 451.951, 656.783 451.450 C 656.613 451.280, 655.291 453.359, 653.846 456.070 M 573.717 453.994 C 572.949 455.090, 572.088 455.754, 571.803 455.469 C 571.518 455.185, 570.767 455.576, 570.133 456.339 C 569.159 457.513, 569.707 457.561, 573.696 456.648 C 577.704 455.731, 578.043 455.481, 575.955 454.983 C 573.577 454.415, 573.563 454.360, 575.500 453.228 C 576.600 452.586, 576.963 452.047, 576.307 452.030 C 575.650 452.014, 574.485 452.897, 573.717 453.994 M 198 454 C 199.375 454.440, 201.175 454.839, 202 454.885 C 203.333 454.960, 203.333 454.862, 202 454 C 201.175 453.467, 199.375 453.069, 198 453.115 L 195.500 453.199 198 454 M 581.601 453.837 C 581.317 454.297, 588.378 454.687, 597.292 454.705 C 606.293 454.722, 612.388 454.395, 611 453.968 C 607.569 452.913, 582.242 452.800, 581.601 453.837 M 631 454 C 629.857 454.738, 630.215 454.949, 632.500 454.885 C 634.150 454.839, 636.625 454.440, 638 454 C 640.169 453.305, 639.970 453.188, 636.500 453.115 C 634.300 453.069, 631.825 453.467, 631 454 M 124.114 464.250 C 125.299 466.587, 126.561 468.725, 126.919 469 C 127.276 469.275, 128.566 470.798, 129.784 472.385 C 131.003 473.972, 132 474.828, 132 474.288 C 132 473.748, 131.057 472.225, 129.904 470.903 C 128.752 469.581, 126.684 466.587, 125.309 464.250 C 123.935 461.913, 122.619 460, 122.385 460 C 122.151 460, 122.929 461.913, 124.114 464.250 M 648.473 465.053 C 647.604 466.732, 643.711 471.457, 639.820 475.553 C 632.330 483.437, 631.110 485.963, 638.276 478.747 C 644.793 472.185, 652.265 462, 650.561 462 C 650.281 462, 649.341 463.374, 648.473 465.053 M 133 475.994 C 133 477.181, 138.979 483.354, 139.563 482.771 C 139.840 482.493, 138.477 480.677, 136.533 478.733 C 134.590 476.790, 133 475.557, 133 475.994 M 642.750 487.368 C 641.237 488.668, 640 490.096, 640 490.541 C 640 490.985, 641.093 490.322, 642.429 489.067 L 644.857 486.785 645.269 490.143 C 645.641 493.185, 645.695 493.102, 645.840 489.250 C 645.928 486.913, 645.888 485.001, 645.750 485.001 C 645.612 485.002, 644.263 486.067, 642.750 487.368 M 128 488.559 C 128 489.416, 128.483 489.819, 129.074 489.454 C 129.665 489.089, 131.240 489.816, 132.574 491.070 C 133.908 492.323, 135 493.024, 135 492.626 C 135 491.740, 129.789 487.075, 128.750 487.032 C 128.338 487.014, 128 487.702, 128 488.559 M 129.058 502.083 C 129.089 503.962, 129.511 507.300, 129.996 509.500 C 130.672 512.574, 130.746 511.880, 130.315 506.500 C 129.718 499.050, 128.962 496.394, 129.058 502.083 M 643.692 505.376 C 643.266 509.158, 643.128 512.461, 643.384 512.718 C 644.106 513.440, 645.212 504.737, 644.817 501.441 C 644.600 499.632, 644.167 501.146, 643.692 505.376 M 189 508 C 189 508.550, 190.463 508.968, 192.250 508.930 C 194.974 508.871, 195.176 508.720, 193.500 508 C 190.737 506.813, 189 506.813, 189 508 M 198.500 510 C 198.840 510.550, 200.554 510.955, 202.309 510.900 C 205.356 510.805, 205.387 510.765, 203 510 C 199.409 508.850, 197.789 508.850, 198.500 510 M 243 510 L 238.500 510.700 244 510.731 C 247.025 510.749, 250.850 510.420, 252.500 510 C 255.329 509.280, 255.272 509.238, 251.500 509.269 C 249.300 509.286, 245.475 509.615, 243 510 M 273 510 C 273 510.550, 274.087 511, 275.417 511 C 276.746 511, 278.006 511.517, 278.217 512.150 C 278.428 512.782, 279.252 513.080, 280.050 512.811 C 281.034 512.479, 280.472 511.789, 278.300 510.661 C 274.645 508.764, 273 508.559, 273 510 M 210 512 C 211.837 513.187, 226.737 513.187, 229.500 512 C 230.777 511.451, 227.344 511.121, 220 511.086 C 212.229 511.048, 208.986 511.345, 210 512 M 499.500 512 C 499.840 512.550, 501.554 512.955, 503.309 512.900 C 506.356 512.805, 506.387 512.765, 504 512 C 500.409 510.850, 498.789 510.850, 499.500 512 M 570.500 512 C 568.714 512.767, 568.788 512.867, 571.191 512.930 C 572.671 512.968, 574.160 512.550, 574.500 512 C 575.238 510.806, 573.278 510.806, 570.500 512 M 509.500 514 C 509.840 514.550, 511.329 514.968, 512.809 514.930 C 515.212 514.867, 515.286 514.767, 513.500 514 C 510.722 512.806, 508.762 512.806, 509.500 514 M 560 514 C 557.754 514.719, 557.876 514.811, 561.191 514.900 C 563.221 514.955, 565.160 514.550, 565.500 514 C 566.215 512.843, 563.612 512.843, 560 514 M 607.600 518.100 C 607.234 520.392, 607.129 522.462, 607.368 522.701 C 607.606 522.940, 608.116 521.274, 608.500 519 C 608.884 516.726, 608.989 514.655, 608.732 514.399 C 608.476 514.143, 607.966 515.808, 607.600 518.100 M 131.100 517.583 C 131.155 519.188, 131.582 521.625, 132.049 523 C 132.622 524.686, 132.711 523.872, 132.321 520.500 C 131.672 514.875, 130.948 513.147, 131.100 517.583 M 165.090 515.500 C 164.960 516.973, 168.040 531.373, 168.607 531.940 C 168.873 532.207, 168.771 530.417, 168.378 527.962 C 167.564 522.867, 165.223 513.997, 165.090 515.500 M 518.461 515.936 C 518.822 516.521, 520.741 517, 522.726 517 C 527.139 517, 526.758 516.493, 521.652 515.569 C 519.031 515.095, 518.013 515.212, 518.461 515.936 M 542.500 516 L 536.500 516.664 544.691 516.832 C 549.266 516.926, 553.155 516.558, 553.500 516 C 554.164 514.925, 552.213 514.925, 542.500 516 M 641.600 520.100 C 641.234 522.392, 641.129 524.462, 641.368 524.701 C 641.606 524.940, 642.116 523.274, 642.500 521 C 642.884 518.726, 642.989 516.655, 642.732 516.399 C 642.476 516.143, 641.966 517.808, 641.600 520.100 M 268.250 522.360 C 267.012 522.973, 266 523.829, 266 524.263 C 266 524.918, 271.542 522.603, 272.917 521.373 C 273.804 520.579, 270.386 521.302, 268.250 522.360 M 501.134 526.829 C 502.985 528.935, 505.069 531.523, 505.764 532.579 C 506.460 533.636, 506.301 532.971, 505.412 531.103 C 503.820 527.756, 499.721 523, 498.429 523 C 498.065 523, 499.282 524.723, 501.134 526.829 M 263 526 C 263 526.550, 262.355 527, 261.567 527 C 260.779 527, 259.849 527.900, 259.500 529 C 259.151 530.100, 258.446 531, 257.933 531 C 257.420 531, 257 531.693, 257 532.540 C 257 533.387, 256.073 535.898, 254.939 538.120 C 253.805 540.342, 253.004 543.136, 253.158 544.330 C 253.312 545.523, 253.088 547.063, 252.660 547.750 C 252.172 548.533, 252.424 549, 253.334 549 C 254.133 549, 255.059 548.288, 255.393 547.418 C 256.256 545.169, 256.153 544.787, 254.893 545.566 C 254.117 546.046, 254.004 545.242, 254.515 542.875 C 255.522 538.215, 258.432 532.716, 262.110 528.528 C 263.813 526.588, 264.711 525, 264.104 525 C 263.497 525, 263 525.450, 263 526 M 133.115 529.500 C 133.069 531.150, 133.467 533.175, 134 534 C 134.799 535.236, 134.955 535.148, 134.885 533.500 C 134.839 532.400, 134.440 530.375, 134 529 C 133.215 526.550, 133.198 526.560, 133.115 529.500 M 326.500 528 C 326.149 528.567, 326.990 529, 328.441 529 C 329.848 529, 331 528.550, 331 528 C 331 527.450, 330.127 527, 329.059 527 C 327.991 527, 326.840 527.450, 326.500 528 M 389.651 530.225 C 389.334 531.437, 389.483 532.680, 389.981 532.988 C 390.479 533.296, 391.052 536.237, 391.254 539.524 C 391.580 544.825, 391.643 544.575, 391.811 537.309 C 391.993 529.419, 390.846 525.657, 389.651 530.225 M 640.123 529 C 640.040 529.825, 639.723 531.625, 639.418 533 C 638.938 535.161, 639.016 535.259, 639.997 533.721 C 640.621 532.743, 640.938 530.943, 640.702 529.721 C 640.466 528.500, 640.205 528.175, 640.123 529 M 321 531.049 C 318.424 532.423, 318.028 532.919, 319.500 532.926 C 321.527 532.937, 325.712 530.372, 324.927 529.601 C 324.692 529.370, 322.925 530.021, 321 531.049 M 169.086 534.500 C 169.116 535.600, 169.527 537.400, 170 538.500 C 170.787 540.332, 170.864 540.290, 170.914 538 C 170.945 536.625, 170.533 534.825, 170 534 C 169.200 532.762, 169.040 532.849, 169.086 534.500 M 333.170 540 C 333.154 541.375, 333.527 543.400, 334 544.500 L 334.859 546.500 334.830 544.500 C 334.814 543.400, 334.440 541.375, 334 540 L 333.199 537.500 333.170 540 M 385 541 C 384.302 542.685, 383.956 544.289, 384.231 544.564 C 384.506 544.839, 385.302 543.685, 386 542 C 386.698 540.315, 387.044 538.711, 386.769 538.436 C 386.494 538.161, 385.698 539.315, 385 541 M 296.500 540 C 294.714 540.767, 294.788 540.867, 297.191 540.930 C 298.671 540.968, 300.160 540.550, 300.500 540 C 301.238 538.806, 299.278 538.806, 296.500 540 M 275.500 542 L 263.500 542.598 276 542.784 C 282.875 542.886, 289.175 542.533, 290 542 C 291.227 541.207, 291.136 541.064, 289.500 541.216 C 288.400 541.319, 282.100 541.671, 275.500 542 M 472.596 542.155 C 472.883 542.620, 479.054 542.964, 486.309 542.921 C 493.564 542.878, 499.050 542.687, 498.500 542.497 C 496.190 541.700, 472.118 541.382, 472.596 542.155 M 509.581 543.263 C 509.962 544.903, 509.722 546.630, 508.989 547.513 C 507.983 548.725, 508.055 549, 509.378 549 C 511.239 549, 511.614 544.453, 509.954 542 C 509.202 540.888, 509.105 541.215, 509.581 543.263 M 501 543.989 C 501 544.533, 502.093 544.887, 503.428 544.777 C 504.763 544.666, 505.637 544.221, 505.369 543.788 C 504.665 542.649, 501 542.818, 501 543.989 M 137.100 545.812 C 136.972 547.486, 140.129 557.204, 140.636 556.698 C 140.845 556.489, 140.157 553.659, 139.108 550.409 C 138.058 547.159, 137.155 545.090, 137.100 545.812 M 380.667 550.167 C 378.533 555.598, 379.149 556.214, 381.500 551 C 382.497 548.789, 383.088 546.754, 382.812 546.479 C 382.537 546.204, 381.572 547.863, 380.667 550.167 M 173 547.822 C 173 549.429, 176.233 558.101, 176.669 557.664 C 177.151 557.182, 174.016 547, 173.385 547 C 173.173 547, 173 547.370, 173 547.822 M 390.336 556 C 390.336 560.125, 390.513 561.813, 390.728 559.750 C 390.944 557.688, 390.944 554.313, 390.728 552.250 C 390.513 550.188, 390.336 551.875, 390.336 556 M 335.328 558.500 C 335.333 562.350, 335.513 563.802, 335.730 561.728 C 335.946 559.653, 335.943 556.503, 335.722 554.728 C 335.501 552.952, 335.324 554.650, 335.328 558.500 M 377.630 558.250 C 376.343 563.054, 377.863 574.941, 380.078 577.392 C 380.522 577.883, 380.188 575.633, 379.337 572.392 C 378.386 568.774, 377.995 564.474, 378.322 561.250 C 378.888 555.683, 378.624 554.541, 377.630 558.250 M 307.444 559.369 C 307.092 560.769, 307.038 562.496, 307.323 563.207 C 307.654 564.031, 307.871 563.865, 307.921 562.750 C 307.964 561.788, 308.433 561, 308.962 561 C 309.492 561, 310.073 565.163, 310.255 570.250 L 310.585 579.500 310.792 569.372 C 310.953 561.526, 310.671 558.972, 309.541 558.034 C 308.340 557.037, 307.970 557.273, 307.444 559.369 M 141.073 558.572 C 140.970 560.082, 144.143 569.191, 144.609 568.724 C 144.821 568.513, 144.128 565.901, 143.070 562.920 C 142.012 559.939, 141.113 557.982, 141.073 558.572 M 631.087 562.104 C 630.411 564.361, 629.636 566.949, 629.365 567.854 C 629.094 568.759, 629.523 568.375, 630.318 567 C 631.776 564.478, 633.518 558, 632.738 558 C 632.506 558, 631.763 559.847, 631.087 562.104 M 305 566.542 C 305 567.969, 304.397 568.931, 301.366 572.347 C 298.694 575.359, 296.009 582.195, 296.118 585.710 L 296.235 589.500 297.017 584.872 C 297.924 579.507, 299.060 577.152, 303.658 571.106 C 307.118 566.557, 307.715 565, 306 565 C 305.450 565, 305 565.694, 305 566.542 M 441.199 567 C 441.199 568.375, 441.560 570.625, 442 572 L 442.801 574.500 442.801 572 C 442.801 570.625, 442.440 568.375, 442 567 L 441.199 564.500 441.199 567 M 333.614 571.867 C 333.222 574.818, 333.114 577.447, 333.375 577.708 C 334.042 578.375, 335.304 569.411, 334.768 567.813 C 334.526 567.091, 334.007 568.915, 333.614 571.867 M 462.286 571.500 C 462.294 574.250, 462.488 575.256, 462.718 573.736 C 462.947 572.216, 462.941 569.966, 462.704 568.736 C 462.467 567.506, 462.279 568.750, 462.286 571.500 M 181.035 569.267 C 180.981 570.454, 192.072 592.261, 192.509 591.824 C 192.721 591.612, 190.235 586.277, 186.983 579.969 C 183.731 573.661, 181.055 568.845, 181.035 569.267 M 591.250 570.559 C 590.563 571.305, 589.987 572.497, 589.971 573.208 C 589.955 573.919, 587.945 578.303, 585.504 582.950 C 583.064 587.598, 581.250 591.583, 581.472 591.806 C 581.695 592.029, 584.408 587.166, 587.500 581 C 592.983 570.068, 593.801 567.789, 591.250 570.559 M 145.116 571 C 145.098 571.825, 145.946 574.075, 147 576 C 149.437 580.452, 149.437 578.765, 147 573.500 C 145.982 571.300, 145.134 570.175, 145.116 571 M 626.667 574.167 C 624.533 579.598, 625.149 580.214, 627.500 575 C 628.497 572.789, 629.088 570.754, 628.812 570.479 C 628.537 570.204, 627.572 571.863, 626.667 574.167 M 393.040 573.300 C 392.969 574.726, 396.147 580.236, 398.352 582.509 C 400.394 584.615, 401.962 586.692, 403.984 589.971 C 404.483 590.780, 405.199 591.134, 405.576 590.757 C 405.953 590.381, 404.017 587.469, 401.274 584.286 C 398.532 581.104, 395.566 577.150, 394.684 575.500 C 393.802 573.850, 393.062 572.860, 393.040 573.300 M 443.031 576.300 C 442.911 579.372, 451.105 590, 453.593 590 C 455.096 590, 461.011 583.357, 460.970 581.715 C 460.953 581.047, 460.426 581.385, 459.799 582.466 C 458.265 585.112, 454.313 589, 453.158 589 C 452.049 589, 448.849 585.036, 445.490 579.500 C 444.155 577.300, 443.048 575.860, 443.031 576.300 M 364.943 582.750 C 362.661 587.302, 362.611 587.552, 364.260 586.192 C 365.619 585.070, 365.909 585.213, 366.287 587.192 C 366.529 588.461, 366.789 587.362, 366.864 584.750 C 366.939 582.138, 366.847 580, 366.661 580 C 366.474 580, 365.701 581.237, 364.943 582.750 M 622.785 583.865 C 621.892 586.139, 621.338 588, 621.555 588 C 622.357 588, 625.109 581.827, 624.766 580.797 C 624.570 580.210, 623.679 581.590, 622.785 583.865 M 311 581.367 C 311 582.450, 315.970 592, 316.534 592 C 316.809 592, 315.847 589.638, 314.397 586.750 C 311.607 581.197, 311 580.235, 311 581.367 M 477.432 596.359 C 477.394 601.597, 477.671 604.433, 478.083 603 C 479.048 599.638, 479.150 589.781, 478.235 588.359 C 477.831 587.732, 477.470 591.332, 477.432 596.359 M 153 589.321 C 153 590.619, 163.472 611, 164.139 611 C 164.515 611, 162.317 606.163, 159.255 600.250 C 153.434 589.011, 153 588.253, 153 589.321 M 616.204 597.552 C 613.892 602.215, 612.023 606.360, 612.051 606.765 C 612.078 607.169, 614.132 603.516, 616.614 598.646 C 619.095 593.777, 620.964 589.631, 620.767 589.434 C 620.570 589.237, 618.517 592.890, 616.204 597.552 M 385.477 600.047 C 385.464 604.907, 385.795 608.347, 386.212 607.692 C 387.184 606.163, 387.202 593.863, 386.235 592.355 C 385.831 591.725, 385.490 595.186, 385.477 600.047 M 323.615 593.777 C 321.440 595.076, 320.619 595.192, 320.281 594.250 C 320.035 593.563, 319.421 593, 318.917 593 C 317.385 593, 317.889 594.450, 319.845 595.671 C 321.354 596.613, 322.218 596.391, 324.595 594.447 C 328.025 591.643, 327.635 591.375, 323.615 593.777 M 195.078 596.750 C 198.531 602.526, 199.422 603.018, 196.887 597.750 C 195.630 595.138, 194.204 593, 193.719 593 C 193.234 593, 193.846 594.688, 195.078 596.750 M 577.113 597.750 C 574.578 603.018, 575.469 602.526, 578.922 596.750 C 580.154 594.688, 580.766 593, 580.281 593 C 579.796 593, 578.370 595.138, 577.113 597.750 M 409.636 596.500 C 410.056 597.600, 410.647 603.302, 410.950 609.171 C 411.670 623.139, 412.600 623.913, 412.152 610.171 C 411.923 603.166, 411.301 598.645, 410.338 597.002 C 409.532 595.626, 409.216 595.400, 409.636 596.500 M 429.485 597.025 C 429.077 597.684, 429.276 598.552, 429.926 598.954 C 432.607 600.611, 436.373 623.524, 435.497 632.853 L 435.061 637.500 435.986 633.500 C 437.077 628.785, 435.743 613.958, 433.345 604.139 C 431.584 596.924, 430.632 595.169, 429.485 597.025 M 357.630 600.250 C 356.518 604.399, 357.028 609.466, 358.994 613.796 C 362.885 622.369, 362.397 635.381, 357.851 644.293 C 356.756 646.438, 356.117 648.450, 356.430 648.764 C 356.744 649.077, 357 648.840, 357 648.238 C 357 647.636, 357.600 646.543, 358.334 645.809 C 359.068 645.075, 360.477 641.176, 361.465 637.144 C 363.625 628.329, 363.136 620.633, 359.966 613.579 C 358.230 609.715, 357.874 607.514, 358.305 603.329 C 358.887 597.694, 358.630 596.520, 357.630 600.250 M 428.123 603 C 428.040 603.825, 427.723 605.625, 427.418 607 C 426.938 609.161, 427.016 609.259, 427.997 607.721 C 428.621 606.743, 428.938 604.943, 428.702 603.721 C 428.466 602.500, 428.205 602.175, 428.123 603 M 301.071 607.230 C 300.956 608.414, 304.214 616.120, 304.646 615.687 C 304.864 615.470, 304.164 613.313, 303.092 610.896 C 302.019 608.478, 301.109 606.828, 301.071 607.230 M 204 609.619 C 204 610.742, 213.710 624, 214.534 624 C 215.357 624, 215.043 623.358, 213.019 620.903 C 211.929 619.581, 210.669 618.050, 210.219 617.500 C 209.770 616.950, 208.186 614.708, 206.701 612.518 C 205.215 610.328, 204 609.023, 204 609.619 M 567.001 612.757 C 565.627 614.816, 563.940 617.095, 563.251 617.821 C 562.563 618.548, 562 619.642, 562 620.252 C 562 620.862, 563.800 618.949, 566 616 C 569.433 611.399, 570.730 608.980, 569.750 609.007 C 569.612 609.011, 568.376 610.698, 567.001 612.757 M 607.114 614.011 C 605.881 616.205, 605.081 618, 605.337 618 C 606.014 618, 610.148 610.815, 609.718 610.385 C 609.519 610.186, 608.347 611.817, 607.114 614.011 M 375.176 616.500 C 375.143 618.150, 375.488 621.300, 375.943 623.500 L 376.770 627.500 376.767 623.500 C 376.765 621.300, 376.420 618.150, 376 616.500 L 375.237 613.500 375.176 616.500 M 489.496 622.996 C 489.498 626.741, 489.837 629.598, 490.250 629.344 C 491.230 628.740, 491.227 617.258, 490.246 616.652 C 489.832 616.396, 489.494 619.251, 489.496 622.996 M 287.070 621.250 C 287.109 623.587, 287.550 626.400, 288.051 627.500 C 288.682 628.888, 288.809 627.969, 288.465 624.500 C 288.064 620.457, 288.168 619.959, 289.006 621.895 C 289.576 623.213, 290.319 624.014, 290.656 623.677 C 291.460 622.873, 289.017 617, 287.879 617 C 287.395 617, 287.032 618.913, 287.070 621.250 M 350.116 621.747 C 350.052 622.432, 346.962 626.191, 343.250 630.100 C 334.914 638.876, 334.060 640.361, 334.113 646 C 334.151 650.038, 337.797 662.627, 337.879 659 C 337.897 658.175, 337.264 655.700, 336.471 653.500 C 334.816 648.906, 334.518 641, 336 641 C 336.550 641, 337 640.315, 337 639.479 C 337 638.045, 347.083 627, 348.392 627 C 348.726 627, 349.041 627.788, 349.090 628.750 C 349.140 629.712, 349.614 628.993, 350.144 627.151 C 350.675 625.309, 350.911 623.059, 350.670 622.151 C 350.429 621.243, 350.180 621.061, 350.116 621.747 M 558 624.131 C 552.555 630.558, 548.306 635.333, 544.180 639.661 C 541.804 642.154, 540.058 644.391, 540.301 644.634 C 540.735 645.069, 554.749 630.151, 559.029 624.697 C 562.003 620.907, 561.136 620.429, 558 624.131 M 172.604 625.201 C 173.514 626.962, 174.763 628.932, 175.380 629.579 C 175.996 630.226, 177.175 631.752, 178 632.971 C 178.825 634.189, 180.175 636.003, 181 637 C 181.825 637.997, 183.175 639.797, 184 641 C 186.309 644.366, 189 647.384, 189 646.609 C 189 646.030, 181.178 635.088, 178.162 631.447 C 177.682 630.868, 176.039 628.505, 174.512 626.197 C 171.212 621.211, 170.292 620.731, 172.604 625.201 M 413 623.185 C 413 625.501, 418.007 629.393, 419.311 628.089 C 420.096 627.304, 419.947 627, 418.773 627 C 417.877 627, 416.212 625.814, 415.073 624.365 C 413.800 622.747, 413 622.292, 413 623.185 M 599.475 626.250 C 597.940 628.587, 594.730 633.053, 592.342 636.174 C 587.936 641.931, 586.341 645.219, 590 641 C 591.100 639.732, 592 638.421, 592 638.087 C 592 637.753, 593.013 636.343, 594.250 634.954 C 596.980 631.889, 600.252 627.294, 601.873 624.250 C 603.843 620.549, 602.463 621.700, 599.475 626.250 M 216 625.707 C 216 626.212, 217.350 627.919, 219 629.500 C 220.650 631.081, 222 632.113, 222 631.793 C 222 631.473, 220.650 629.766, 219 628 C 217.350 626.234, 216 625.202, 216 625.707 M 293.490 627.990 C 295.065 629.634, 296.547 630.786, 296.783 630.550 C 297.305 630.029, 292.389 625, 291.358 625 C 290.955 625, 291.915 626.345, 293.490 627.990 M 470.090 627.095 C 469.971 630.537, 473.196 633.419, 476.297 632.640 C 478.981 631.967, 484.363 628.030, 483.619 627.285 C 483.351 627.018, 482.118 627.744, 480.878 628.899 C 479.536 630.149, 477.293 631, 475.340 631 C 472.495 631, 471.932 630.566, 471.119 627.750 C 470.254 624.754, 470.173 624.703, 470.090 627.095 M 306 629.833 C 306 630.504, 304.486 631, 302.441 631 C 300.323 631, 299.132 631.405, 299.500 632 C 300.443 633.525, 304.596 633.191, 306.020 631.476 C 306.716 630.638, 306.996 629.663, 306.643 629.309 C 306.289 628.956, 306 629.192, 306 629.833 M 347.552 636.428 C 347.033 640.583, 347.271 642.623, 348.567 645.129 C 350.538 648.941, 352.418 651, 353.929 651 C 355.799 651, 355.082 649.255, 352.987 648.707 C 349.901 647.900, 347.818 641.851, 348.599 635.962 C 348.961 633.233, 349.027 631, 348.744 631 C 348.462 631, 347.925 633.443, 347.552 636.428 M 223 633.639 C 223 634.158, 225.059 636.590, 227.576 639.042 C 231.872 643.228, 232.040 643.302, 230.326 640.256 C 229.321 638.472, 228.103 637.010, 227.617 637.006 C 227.132 637.003, 225.894 636.031, 224.867 634.847 C 223.840 633.663, 223 633.119, 223 633.639 M 292.592 638.906 C 293.484 640.779, 294.623 642.804, 295.125 643.406 C 295.627 644.008, 296.929 645.581, 298.019 646.903 C 301.247 650.818, 300.274 648.246, 296.750 643.547 C 294.962 641.164, 292.931 638.379, 292.236 637.357 C 291.540 636.336, 291.701 637.033, 292.592 638.906 M 484.643 639.028 C 483.635 640.734, 480.041 645.137, 476.655 648.813 C 473.270 652.489, 471.400 654.822, 472.500 653.998 C 475.316 651.888, 484 642.722, 484 641.859 C 484 641.465, 484.711 640.432, 485.580 639.563 C 486.450 638.693, 487.006 637.519, 486.818 636.954 C 486.629 636.388, 485.651 637.321, 484.643 639.028 M 441.477 650.023 C 438.781 652.760, 437.121 655, 437.788 655 C 438.454 655, 439 654.550, 439 654 C 439 653.450, 439.675 653, 440.500 653 C 441.325 653, 442 652.570, 442 652.045 C 442 651.520, 443.173 649.918, 444.606 648.485 C 446.039 647.052, 447.025 645.691, 446.796 645.462 C 446.567 645.233, 444.173 647.286, 441.477 650.023 M 190 647.762 C 190 648.219, 190.787 649.607, 191.750 650.846 C 194.556 654.459, 215.139 675.194, 215.531 674.803 C 215.726 674.607, 211.508 669.959, 206.155 664.473 C 200.803 658.988, 194.978 652.797, 193.212 650.715 C 191.445 648.634, 190 647.305, 190 647.762 M 237 647.476 C 237 648.398, 244.359 654.974, 244.846 654.487 C 245.047 654.286, 244.144 653.081, 242.838 651.811 C 239.313 648.380, 237 646.663, 237 647.476 M 534.506 648.994 C 533.507 650.097, 532.295 651, 531.812 651 C 530.820 651, 524 657.596, 524 658.556 C 524 658.898, 525.462 657.954, 527.250 656.458 C 534.604 650.303, 537.187 647.853, 536.766 647.432 C 536.521 647.188, 535.504 647.890, 534.506 648.994 M 580.750 650.459 C 577.059 654.909, 577.240 656.025, 581 652 C 582.650 650.234, 584 648.386, 584 647.894 C 584 646.620, 583.812 646.769, 580.750 650.459 M 301 649.838 C 301 651.175, 304.607 655, 305.867 655 C 306.490 655, 307 655.450, 307 656 C 307 656.550, 307.637 657, 308.417 657 C 309.196 657, 310.006 657.518, 310.217 658.150 C 310.428 658.782, 311.252 659.080, 312.050 658.811 C 313.050 658.474, 312.570 657.839, 310.500 656.762 C 308.850 655.904, 306.038 653.803, 304.250 652.092 C 302.462 650.382, 301 649.368, 301 649.838 M 448.704 656.750 C 449.506 661.943, 450 662.102, 450 657.167 C 450 654.875, 449.578 653, 449.063 653 C 448.544 653, 448.384 654.673, 448.704 656.750 M 429.518 656.029 C 430.253 657.219, 434.685 657.318, 435.401 656.161 C 435.686 655.699, 434.344 655.262, 432.419 655.189 C 430.380 655.113, 429.168 655.463, 429.518 656.029 M 251.471 659.953 C 251.795 660.478, 253.438 661.888, 255.122 663.087 L 258.184 665.267 256.851 663.133 C 256.118 661.960, 254.952 661, 254.259 661 C 253.567 661, 253 660.550, 253 660 C 253 659.450, 252.523 659, 251.941 659 C 251.359 659, 251.147 659.429, 251.471 659.953 M 520.265 660.480 C 519.585 661.252, 518.239 662.327, 517.273 662.867 C 516.307 663.408, 515.766 664.099, 516.071 664.404 C 516.376 664.709, 518.172 663.636, 520.063 662.020 C 521.953 660.404, 523.050 659.080, 522.500 659.079 C 521.950 659.077, 520.944 659.708, 520.265 660.480 M 566.966 665.750 L 561.500 671.500 567.250 666.034 C 572.592 660.956, 573.458 660, 572.716 660 C 572.560 660, 569.972 662.587, 566.966 665.750 M 321 661.939 C 321 662.598, 324.029 663, 329 663 C 333.667 663, 337 663.417, 337 664 C 337 664.550, 337.450 665, 338 665 C 338.550 665, 338.964 663.987, 338.921 662.750 C 338.878 661.513, 338.624 661.037, 338.356 661.694 C 338.089 662.350, 337.337 662.722, 336.685 662.520 C 333.161 661.429, 321 660.978, 321 661.939 M 451.500 662 L 448.500 662.763 452.191 662.882 C 454.221 662.947, 456.160 662.550, 456.500 662 C 457.193 660.879, 455.907 660.879, 451.500 662 M 500 674 C 500 674.550, 499.325 675, 498.500 675 C 497.675 675, 497 675.366, 497 675.813 C 497 676.261, 495.425 677.245, 493.500 678 C 491.575 678.755, 490 679.782, 490 680.282 C 490 680.782, 492.587 679.748, 495.750 677.985 C 502.653 674.137, 504.010 673, 501.700 673 C 500.765 673, 500 673.450, 500 674 M 219 677.502 C 219 678.473, 223.834 683, 224.871 683 C 225.400 683, 225.983 683.354, 226.167 683.786 C 226.565 684.726, 233 689.335, 233 688.681 C 233 688.430, 229.850 685.680, 226 682.570 C 222.150 679.459, 219 677.179, 219 677.502 M 476.430 685.886 C 476.731 686.374, 475.990 687.031, 474.782 687.347 C 473.575 687.662, 472.836 688.169, 473.140 688.473 C 473.731 689.065, 481 686.303, 481 685.487 C 481 685.219, 479.848 685, 478.441 685 C 477.034 685, 476.128 685.399, 476.430 685.886 M 332.500 700 C 335.278 701.194, 337.238 701.194, 336.500 700 C 336.160 699.450, 334.671 699.032, 333.191 699.070 C 330.788 699.133, 330.714 699.233, 332.500 700 M 437.500 700 C 436.762 701.194, 438.722 701.194, 441.500 700 C 443.286 699.233, 443.212 699.133, 440.809 699.070 C 439.329 699.032, 437.840 699.450, 437.500 700 M 341.500 702 C 344.291 703.199, 347.241 703.199, 346.500 702 C 346.160 701.450, 344.446 701.032, 342.691 701.070 C 340.001 701.130, 339.814 701.276, 341.500 702 M 428.500 702 C 427.789 703.150, 429.409 703.150, 433 702 C 435.387 701.235, 435.356 701.195, 432.309 701.100 C 430.554 701.045, 428.840 701.450, 428.500 702 M 254 703.974 C 254 704.538, 254.675 705, 255.500 705 C 256.325 705, 257 705.398, 257 705.883 C 257 706.369, 257.788 707.045, 258.750 707.384 C 259.712 707.724, 261.175 708.254, 262 708.563 C 264.110 709.354, 260.067 706.147, 256.750 704.398 C 255.146 703.553, 254 703.376, 254 703.974 M 352 704 C 355.639 705.166, 359.220 705.166, 358.500 704 C 358.160 703.450, 355.996 703.045, 353.691 703.100 C 350.112 703.185, 349.865 703.316, 352 704 M 416 704 C 414.821 704.762, 415.034 704.951, 417 704.885 C 418.375 704.839, 420.625 704.440, 422 704 C 424.291 703.266, 424.207 703.192, 421 703.115 C 419.075 703.069, 416.825 703.467, 416 704 M 513.073 706.726 C 509.420 708.804, 507.240 710.580, 508.023 710.841 C 508.780 711.093, 509.572 710.782, 509.783 710.150 C 509.994 709.518, 511.029 709, 512.083 709 C 513.138 709, 514 708.550, 514 708 C 514 707.450, 514.675 707, 515.500 707 C 516.325 707, 517 706.550, 517 706 C 517 705.450, 517.675 705, 518.500 705 C 519.325 705, 520 704.550, 520 704 C 520 702.703, 520.468 702.519, 513.073 706.726 M 370 706.042 C 377.187 707.035, 398.132 707.038, 404.500 706.046 C 407.684 705.550, 401.327 705.270, 387 705.274 C 372.543 705.279, 366.466 705.553, 370 706.042 M 325.500 734 C 325.840 734.550, 327.329 734.968, 328.809 734.930 C 331.212 734.867, 331.286 734.767, 329.500 734 C 326.722 732.806, 324.762 732.806, 325.500 734 M 444.500 734 C 442.824 734.720, 443.026 734.871, 445.750 734.930 C 447.538 734.968, 449 734.550, 449 734 C 449 732.813, 447.263 732.813, 444.500 734 M 333 736 C 333 736.550, 334.913 736.955, 337.250 736.900 C 340.860 736.816, 341.124 736.680, 339 736 C 335.401 734.847, 333 734.847, 333 736 M 435 736 C 432.769 736.715, 432.903 736.811, 436.250 736.900 C 438.313 736.955, 440 736.550, 440 736 C 440 734.855, 438.575 734.855, 435 736 M 344 738 C 344 738.550, 346.137 738.947, 348.750 738.882 C 352.990 738.776, 353.178 738.681, 350.500 738 C 346.077 736.874, 344 736.874, 344 738 M 423 738 L 419.500 738.737 423.691 738.868 C 425.996 738.941, 428.160 738.550, 428.500 738 C 429.180 736.900, 428.228 736.900, 423 738 M 359.456 739.929 C 359.826 740.528, 363.253 741, 367.226 741 C 371.135 741, 374.146 740.834, 373.917 740.630 C 373.688 740.427, 370.191 739.945, 366.147 739.560 C 361.015 739.070, 358.994 739.182, 359.456 739.929 M 405 740 L 400.500 740.700 406 740.780 C 409.025 740.823, 412.400 740.473, 413.500 740 C 415.186 739.276, 415.028 739.153, 412.500 739.220 C 410.850 739.264, 407.475 739.615, 405 740" stroke="none" fill="#f3af75" fill-rule="evenodd"/><path d="M 755.428 16.742 C 755.370 25.442, 754.845 29.149, 752.686 36.120 C 747.927 51.478, 735.765 73, 722.489 89.553 C 715.161 98.690, 708.539 106.450, 702.910 112.496 C 699.836 115.798, 695.336 120.750, 692.910 123.500 C 690.485 126.250, 688.272 128.725, 687.994 129 C 687.715 129.275, 685.021 132.425, 682.006 136 C 678.991 139.575, 675.840 143.175, 675.004 144 C 674.168 144.825, 669.437 150.159, 664.492 155.853 C 659.546 161.546, 654.600 167.220, 653.500 168.460 C 651.199 171.055, 641.379 182.269, 638.674 185.392 C 637.670 186.552, 635.636 188.850, 634.155 190.500 C 632.673 192.150, 621.808 204.525, 610.010 218 C 598.213 231.475, 588.071 243.008, 587.474 243.628 C 586.876 244.248, 584.388 247.126, 581.944 250.023 C 579.500 252.919, 576.600 256.251, 575.500 257.427 C 572.506 260.627, 566.176 267.770, 560 274.919 C 553.864 282.021, 553.910 281.969, 545.374 291.593 C 542.005 295.392, 532.575 306.150, 524.418 315.500 C 516.262 324.850, 509.334 332.725, 509.024 333 C 508.543 333.427, 504.090 338.486, 490.100 354.500 C 476.623 369.928, 458.463 390.598, 458.033 391 C 457.739 391.275, 454.574 394.875, 451 399 C 447.426 403.125, 444.277 406.725, 444.001 407 C 443.134 407.865, 435.719 416.300, 430.130 422.776 C 427.177 426.199, 424.436 429, 424.040 429 C 423.644 429, 422.126 423.712, 420.669 417.250 C 419.211 410.788, 416.889 400.604, 415.509 394.620 C 414.129 388.636, 413 383.591, 413 383.409 C 413 383.227, 413.985 382.160, 415.189 381.039 C 418.282 378.157, 422.381 378.502, 428.878 382.194 C 431.970 383.951, 434.005 384.739, 433.401 383.944 C 432.796 383.150, 426.868 375.247, 420.227 366.383 C 404.447 345.318, 401.411 343, 389.606 343 C 384.361 343, 382.944 342.587, 379.978 340.196 C 369.196 331.503, 358.411 329.617, 351.874 335.282 C 349.508 337.332, 347 341.036, 347 342.480 C 347 342.816, 348.577 342.795, 350.504 342.433 C 357.154 341.186, 365.835 349.328, 368.984 359.767 L 371.015 366.500 367.474 383.500 C 365.526 392.850, 363.015 405.225, 361.894 411 C 360.772 416.775, 359.406 421.950, 358.856 422.500 C 358.191 423.166, 357.185 422.666, 355.840 421 C 353.537 418.146, 342.500 405.663, 339.500 402.520 C 338.400 401.367, 334.579 397.066, 331.008 392.962 C 327.438 388.858, 324.063 385.011, 323.508 384.413 C 322.954 383.816, 319.125 379.574, 315 374.986 C 310.875 370.399, 306.596 365.713, 305.490 364.573 C 304.385 363.433, 302.436 361.150, 301.159 359.500 C 299.883 357.850, 296.736 354.250, 294.166 351.500 C 291.597 348.750, 286.121 342.675, 281.997 338 C 277.874 333.325, 274.266 329.275, 273.979 329 C 273.476 328.517, 236.593 287.021, 230.500 280.084 C 228.850 278.205, 225.204 274.155, 222.398 271.084 C 219.593 268.013, 215.768 263.700, 213.900 261.500 C 212.032 259.300, 210.278 257.275, 210.002 257 C 209.089 256.090, 199.618 245.607, 192 237.074 C 187.875 232.454, 184.050 228.182, 183.500 227.582 C 182.464 226.451, 169.769 212.117, 164.500 206.129 C 162.850 204.254, 161.035 202.220, 160.467 201.610 C 159.899 200.999, 150.015 189.925, 138.503 177 C 126.990 164.075, 117.320 153.275, 117.014 153 C 116.707 152.725, 111.526 146.875, 105.500 140 C 99.474 133.125, 94.308 127.275, 94.020 127 C 93.732 126.725, 88.097 120.432, 81.498 113.015 C 74.899 105.599, 68.600 98.581, 67.500 97.420 C 65.648 95.466, 61.740 91.071, 48.010 75.500 C 45.100 72.200, 39.378 65.040, 35.293 59.588 C 22.885 43.030, 18.160 31.629, 17.256 16.072 L 16.709 6.643 13.388 13.072 C 8.698 22.149, 4.141 36.707, 2.452 48.002 C 0.011 64.323, 3.456 84.510, 13.883 115 C 23.386 142.786, 31.387 159.882, 41.261 173.500 C 48.809 183.910, 52.366 192.148, 52.839 200.312 C 53.187 206.338, 52.969 207.405, 50.942 209.562 C 46.164 214.648, 32.716 210.763, 22.499 201.345 C 21.399 200.330, 18.731 198.178, 16.570 196.563 C 13.365 194.166, 12.783 193.982, 13.406 195.563 C 13.826 196.628, 14.424 199.075, 14.735 201 C 15.986 208.746, 28.554 235.628, 35.305 245 C 41.253 253.256, 57.694 269.251, 79.500 287.995 C 85.550 293.195, 90.725 297.686, 91 297.975 C 91.275 298.264, 95.325 301.868, 100 305.984 C 111.560 316.162, 124.485 328.848, 123.895 329.438 C 123.630 329.704, 121.407 328.569, 118.956 326.917 C 114.172 323.692, 109.517 321.375, 100.919 317.939 C 92.240 314.470, 90.867 314.061, 67.500 308 C 58.700 305.717, 50.150 303.487, 48.500 303.043 C 33.620 299.045, 21.216 292.301, 12.453 283.445 C 8.577 279.527, 4.701 274.866, 3.839 273.086 C 0.446 266.082, 0.954 275.123, 4.552 285.780 C 7.214 293.667, 14.509 306.398, 20.893 314.300 C 33.099 329.409, 43.545 339.550, 58.087 350.410 C 66.788 356.907, 72.148 359.901, 93.285 370.070 C 99.921 373.263, 107 379.626, 107 382.398 C 107 384.552, 102.812 388.077, 98.448 389.596 C 96.161 390.392, 90.397 390.976, 84.750 390.985 C 79.388 390.993, 75.014 391.337, 75.031 391.750 C 75.117 393.831, 89.530 402.464, 101 407.304 C 110.403 411.272, 121.995 415.145, 130 416.993 C 146.083 420.706, 161.974 426.476, 175 433.331 C 182.902 437.490, 202.413 450.282, 207.500 454.640 C 210.899 457.552, 211.706 457.594, 199.500 454.223 C 194.494 452.841, 189.108 452.605, 167 452.801 C 134.280 453.091, 128.948 452.142, 119.250 444.302 C 114.585 440.530, 114.213 440.857, 116.604 446.628 C 123.152 462.439, 127.314 468.991, 137.209 479.060 C 148.901 490.958, 169.371 501.654, 191.500 507.427 C 207.072 511.489, 206.130 511.461, 258.283 509.407 C 269.946 508.947, 274.863 509.115, 277.117 510.049 C 280.163 511.310, 282.560 515.285, 281.403 517.157 C 281.067 517.700, 277.355 519.712, 273.153 521.626 C 268.952 523.541, 264.456 526.096, 263.162 527.304 C 259.966 530.288, 256.290 536.717, 254.633 542.223 L 253.263 546.778 256.706 544.746 C 259.589 543.045, 262.778 542.587, 276.324 541.931 C 296.566 540.949, 306.185 538.575, 321.036 530.897 C 325.181 528.753, 329.034 527, 329.598 527 C 331.087 527, 334.873 543.163, 335.572 552.500 C 336.951 570.945, 331.552 590.132, 323.496 595.411 C 321.349 596.818, 321.010 596.737, 318.490 594.218 C 312.889 588.616, 310.650 582.419, 310.193 571.250 C 309.776 561.077, 308.754 558.291, 307.512 563.944 C 307.157 565.564, 305.295 568.945, 303.375 571.459 C 294.881 582.585, 295.027 588.628, 304.417 614.500 C 307.133 621.983, 307.761 629.839, 305.800 631.800 C 302.355 635.245, 293.768 630.345, 289.502 622.500 L 287.870 619.500 288.539 625 C 289.617 633.876, 295.389 643.782, 304.347 652.134 C 310.736 658.090, 316.286 660.317, 327.750 661.526 C 333.387 662.120, 338 662.315, 338 661.960 C 338 661.604, 337.100 658.697, 336 655.500 C 333.753 648.970, 333.471 642.575, 335.285 639.323 C 335.953 638.126, 339.236 634.301, 342.580 630.823 C 345.924 627.345, 349.216 623.600, 349.895 622.500 C 351.237 620.327, 351.202 620.750, 348.879 634.757 C 347.983 640.162, 348.090 641.522, 349.671 644.757 C 352.340 650.219, 355.028 650.180, 357.718 644.643 C 362.420 634.964, 362.936 622.483, 358.994 613.796 C 355.659 606.448, 356.668 599.805, 363.142 586.500 L 366.500 579.597 367.125 587.548 C 367.726 595.197, 369.462 601.050, 373.061 607.561 C 375.092 611.234, 376.969 619.517, 377.082 625.299 L 377.163 629.500 378.706 626 C 382.881 616.531, 385.108 608.814, 385.632 602 C 386.128 595.541, 385.833 593.390, 383.505 586.500 C 382.018 582.100, 380.461 578.050, 380.045 577.500 C 378.850 575.920, 377 567.462, 377 563.580 C 377 559.595, 380.102 550.973, 385.382 540.276 C 387.344 536.303, 389.233 531.919, 389.581 530.533 C 389.929 529.148, 390.648 528.282, 391.178 528.610 C 391.781 528.983, 391.889 536.008, 391.464 547.353 C 390.821 564.520, 390.903 565.813, 392.983 571.300 C 394.744 575.945, 403.558 588.265, 407.077 591 C 407.431 591.275, 408.565 593.075, 409.597 595 C 410.986 597.590, 411.607 601.406, 411.987 609.677 C 412.413 618.960, 412.856 621.333, 414.600 623.677 C 420.150 631.136, 423.280 626.376, 428.295 602.848 C 428.958 599.740, 429.943 597.126, 430.484 597.039 C 431.841 596.822, 434.717 608.651, 435.944 619.500 C 437.114 629.832, 436.168 637.672, 432.478 648.250 C 430.350 654.347, 430.286 655.011, 431.811 655.118 C 435.372 655.368, 436.652 654.702, 441.500 650.069 C 447.196 644.626, 450.858 642, 452.752 642 C 453.619 642, 453.291 643.040, 451.780 645.084 C 449.919 647.601, 449.500 649.451, 449.500 655.141 L 449.500 662.115 454.500 661.455 C 457.250 661.093, 459.928 660.392, 460.450 659.898 C 460.973 659.404, 462.210 659, 463.200 659 C 464.190 659, 465 658.550, 465 658 C 465 657.450, 465.742 657, 466.649 657 C 467.556 657, 471.751 653.495, 475.972 649.212 C 485.035 640.014, 489.185 632.438, 489.714 624.126 L 490.072 618.500 488.089 622.100 C 485.663 626.504, 479.847 631.749, 476.441 632.604 C 473.586 633.321, 470 630.774, 470 628.029 C 470 627.116, 471.633 621.448, 473.628 615.434 C 476.636 606.368, 477.277 602.963, 477.378 595.500 C 477.489 587.327, 477.243 586.063, 474.700 581.737 C 470.795 575.094, 467 564.616, 467 560.477 C 467 558.565, 466.627 557, 466.172 557 C 465.097 557, 463.003 566.096, 462.989 570.826 C 462.966 578.774, 457.415 590, 453.509 590 C 452.094 590, 446.641 584.279, 444.976 581.046 C 439.894 571.184, 439.658 546.622, 444.530 534.669 C 445.341 532.678, 445.423 532.690, 454.500 536.040 C 465.673 540.164, 470.464 541.025, 487.212 541.918 C 502.162 542.716, 504.260 543.049, 507.105 545.075 L 510.286 547.340 509.551 543.420 C 508.526 537.953, 504.287 529.652, 500.814 526.310 C 499.209 524.764, 494.687 522.346, 490.767 520.937 C 482.434 517.940, 480.709 516.084, 483.447 513.059 C 484.994 511.349, 486.513 511, 492.405 511 C 496.308 511, 502.651 511.682, 506.500 512.517 C 527.803 517.132, 528.874 517.238, 542.500 516.057 C 549.650 515.437, 557.525 514.537, 560 514.055 C 590.456 508.132, 603.700 503.278, 621 491.698 C 631.098 484.939, 645.569 470.224, 650.862 461.333 C 654.895 454.559, 659.480 444.147, 658.751 443.418 C 658.567 443.234, 656.861 444.415, 654.958 446.042 C 645.738 453.929, 639.921 455.007, 607 454.931 C 585.642 454.882, 578.327 455.197, 574.250 456.343 C 571.362 457.155, 569 457.657, 569 457.460 C 569 456.578, 582.140 447.846, 587.534 445.144 C 601.333 438.230, 620.412 431.057, 643.500 424.103 C 660.511 418.980, 668.646 416.034, 674.953 412.712 C 683.458 408.233, 695.694 400.152, 698.176 397.375 C 699.804 395.554, 699.543 395.499, 689.176 395.449 C 681.102 395.411, 677.715 394.982, 675.280 393.689 C 671.391 391.625, 669.657 388.698, 670.553 385.712 C 672.053 380.716, 682.060 372.899, 690 370.521 C 693.854 369.367, 710.458 360.895, 710.833 359.891 C 711.017 359.401, 711.700 359, 712.352 359 C 714.699 359, 734.299 343.456, 743.385 334.387 C 760.537 317.269, 770.706 297.551, 772.596 277.747 L 773.096 272.500 770.798 276.637 C 765.706 285.803, 756.069 294.195, 744.406 299.618 C 738.153 302.525, 730.801 304.909, 702.500 313.203 C 690.670 316.670, 674.771 322.127, 669.220 324.624 C 666.317 325.931, 663.721 327, 663.452 327 C 663.184 327, 660.047 328.772, 656.482 330.938 C 652.917 333.104, 650 334.645, 650 334.362 C 650 331.848, 672.813 307.017, 679.500 302.252 C 728.603 267.267, 741.455 252.568, 756.786 213.862 C 761.997 200.707, 762.199 198.471, 757.750 203.212 C 750.932 210.477, 740.935 215.510, 731 216.680 C 727.147 217.134, 726.105 216.842, 723.750 214.653 C 721.405 212.472, 721 211.300, 721 206.697 C 721 197.737, 723.108 192.856, 734.059 176.459 C 744.634 160.623, 751.596 145.439, 760.120 119.617 C 766.912 99.040, 770.078 85.499, 772.077 68.481 C 773.966 52.392, 770.267 33.960, 761.644 16.500 C 755.706 4.476, 755.510 4.483, 755.428 16.742 M 360 210.132 C 348.108 211.737, 339.538 213.130, 336 214.033 C 334.075 214.525, 329.350 215.659, 325.500 216.553 C 306.100 221.061, 277.046 232.875, 260.219 243.098 C 256.686 245.244, 253.504 247.022, 253.148 247.049 C 252.792 247.076, 250.025 248.884, 247 251.068 C 243.975 253.251, 239.138 256.668, 236.250 258.661 C 233.363 260.653, 231 262.637, 231 263.070 C 231 263.699, 240.764 274.987, 251.046 286.246 C 252.546 287.887, 253.379 287.500, 265.070 279.717 C 301.820 255.253, 341.894 243.099, 386 243.040 C 409.121 243.009, 428.651 245.652, 448.500 251.497 C 475.867 259.557, 495.354 269.541, 523.814 290.084 L 528.129 293.199 533.398 287.349 C 536.297 284.132, 540.205 279.704, 542.084 277.508 C 543.963 275.312, 546.488 272.418, 547.696 271.076 C 548.905 269.734, 549.695 268.316, 549.454 267.925 C 548.446 266.295, 521.906 247, 520.672 247 C 520.415 247, 517.314 245.244, 513.781 243.098 C 491.913 229.813, 460.552 218.233, 432 212.902 C 412.599 209.279, 376.585 207.894, 360 210.132 M 641.500 489.799 C 636.900 494.091, 625.490 502.755, 621.274 505.158 C 619.198 506.340, 615.756 508.251, 613.624 509.404 C 611.492 510.557, 609.632 511.950, 609.491 512.500 C 609.350 513.050, 608.678 516.650, 607.998 520.500 C 604.468 540.501, 596.738 562.891, 586.355 583.195 C 581.218 593.239, 567.388 615.053, 563.330 619.510 C 562.324 620.616, 559.702 623.766, 557.504 626.510 C 551.695 633.765, 535.670 649.586, 527 656.627 C 517.545 664.305, 499.077 676.405, 488 682.180 C 458.368 697.628, 420.562 707.005, 387.932 706.998 C 379.645 706.997, 355.042 704.827, 349.500 703.609 C 348.400 703.368, 344.800 702.624, 341.500 701.958 C 321.396 697.896, 295.166 687.954, 278.081 677.921 C 259.665 667.105, 243.647 654.768, 229.500 640.505 C 196.293 607.025, 175.565 567.890, 165.969 520.560 C 164.861 515.094, 163.852 510.550, 163.727 510.463 C 163.602 510.377, 160.800 509.025, 157.500 507.460 C 150.563 504.170, 137.863 495.890, 133.500 491.813 C 131.850 490.271, 130.162 489.007, 129.750 489.005 C 127.606 488.991, 131.624 520.481, 136.129 539 C 138.381 548.257, 144.350 566.825, 148.106 576.261 C 155.314 594.363, 170.045 621.381, 178.226 631.500 C 178.670 632.050, 181.373 635.650, 184.231 639.500 C 191.172 648.850, 193.528 651.501, 207 665.127 C 246.251 704.824, 295.183 729.638, 350.500 737.898 C 377.690 741.958, 393.438 741.959, 423 737.904 C 462.408 732.498, 500.910 717.029, 534.330 693.175 C 547.368 683.869, 552.154 679.751, 566.497 665.500 C 580.919 651.171, 582.623 649.230, 592.698 635.657 C 617.232 602.608, 634.656 561.903, 641.427 521.818 C 643.465 509.752, 645.262 492.934, 644.853 489.750 L 644.500 487 641.500 489.799" stroke="none" fill="#fb6c0d" fill-rule="evenodd"/></svg>