<svg xmlns="http://www.w3.org/2000/svg" width="1559" height="1559" viewBox="0 0 1559 1559" version="1.1"><path d="M 759.725 79.802 L 740.109 100.500 740.054 126.750 L 740 153 779 153 L 818 153 818 126.716 L 818 100.433 806.808 88.466 C 800.653 81.885, 791.954 72.586, 787.478 67.802 L 779.341 59.103 759.725 79.802 M 729 177.440 C 729 179.331, 725.159 284.294, 720.465 410.690 C 715.770 537.085, 712.058 641.899, 712.215 643.610 C 712.485 646.559, 712.921 646.144, 720.660 635.569 L 728.819 624.420 732.899 423.460 C 735.143 312.932, 737.274 211.588, 737.635 198.250 L 738.291 174 733.646 174 C 729.019 174, 729 174.014, 729 177.440 M 758.996 183.695 C 758.993 189.088, 757.195 280.350, 755 386.500 C 752.805 492.650, 751.007 583.240, 751.004 587.811 L 751 596.122 760.002 585.442 L 769.005 574.763 768.752 374.632 L 768.500 174.500 763.750 174.195 L 759 173.890 758.996 183.695 M 790 374.389 L 790 574.777 798.743 585.312 C 803.552 591.107, 807.528 595.769, 807.580 595.674 C 807.631 595.578, 805.747 503.475, 803.393 391 C 801.039 278.525, 799.088 183.688, 799.057 180.250 L 799 174 794.500 174 L 790 174 790 374.389 M 820.411 186.750 C 820.738 193.762, 822.823 294.225, 825.046 410 C 827.268 525.775, 829.441 621.625, 829.874 623 C 830.536 625.099, 846.164 647.362, 846.522 646.715 C 846.588 646.597, 842.697 543.675, 837.876 418 C 833.056 292.325, 829.086 186.012, 829.056 181.750 L 829 174 824.409 174 L 819.819 174 820.411 186.750 M 762.610 615.581 C 684.369 713.540, 641.579 804.436, 633.025 890.856 C 631.514 906.121, 631.766 938.515, 633.512 953.442 C 637.644 988.764, 646.550 1018.177, 663.506 1052.500 C 677.802 1081.438, 695.815 1108.243, 719.619 1136 C 730.478 1148.661, 762.696 1181.839, 773.137 1191.111 L 779.774 1197.005 797.137 1180.646 C 862.590 1118.979, 902.438 1055.676, 918.405 988 C 927.237 950.565, 928.315 906.996, 921.423 866 C 908.022 786.278, 865.549 701.607, 795.079 614.126 C 788.711 606.220, 782.559 598.606, 781.409 597.207 L 779.319 594.662 762.610 615.581 M 558.990 653.678 C 568.380 682.659, 572.229 705.056, 572.193 730.500 C 572.165 750.457, 571.591 753.939, 558.022 816.500 C 553.132 839.050, 548.230 862.225, 547.129 868 C 535.079 931.228, 538.549 977.267, 558.473 1018.500 C 574.715 1052.113, 602.327 1081.395, 650.390 1115.974 C 671.972 1131.501, 705.817 1152.991, 702.965 1149.357 C 702.164 1148.335, 698.546 1143.900, 694.926 1139.500 C 652.171 1087.539, 625.109 1031.436, 615.097 974 C 611.510 953.424, 610.658 942.877, 610.694 919.500 C 610.756 879.765, 616.163 847.316, 629.690 805.500 C 638.697 777.657, 654.810 741.240, 670.397 713.500 L 677.139 701.500 671.820 696.655 C 656.877 683.047, 632.270 666.552, 613.500 657.564 C 596.785 649.559, 573.980 642.106, 558.344 639.538 L 554.187 638.856 558.990 653.678 M 989.272 641.507 C 953.299 649.833, 918.338 668.409, 885.553 696.618 L 880.767 700.736 886.830 711.618 C 896.122 728.296, 911.182 759.869, 917.540 776 C 931.305 810.925, 939.666 842.545, 944.644 878.500 C 947.387 898.318, 947.159 944.294, 944.221 963.722 C 934.729 1026.494, 909.784 1082.167, 867.120 1135.803 C 857.120 1148.375, 856.858 1148.858, 861.573 1146.011 C 910.340 1116.573, 955.181 1080.705, 975.982 1054.500 C 1014.533 1005.930, 1025.015 952.889, 1011.455 875 C 1010.066 867.025, 1004.924 842.050, 1000.027 819.500 C 984.953 750.079, 985.509 753.506, 985.506 730 C 985.502 707.729, 986.690 697.910, 992.032 676.034 C 994.356 666.515, 1000.331 646.541, 1002.736 640.250 C 1003.391 638.536, 1001.241 638.737, 989.272 641.507 M 426 689.533 C 426 689.827, 427.075 692.189, 428.390 694.783 C 436.268 710.333, 446.099 736.788, 450.952 755.500 C 459.384 788.009, 460.659 811.698, 456.629 861 C 452.341 913.464, 451.749 926.322, 452.250 956.131 C 452.639 979.250, 453.125 986.702, 454.872 996.398 C 457.264 1009.670, 462.268 1025.595, 467.056 1035.171 C 482.305 1065.675, 513.682 1093.600, 555.688 1114.052 C 573.960 1122.949, 586.454 1127.822, 621.067 1139.552 C 638.355 1145.410, 657.184 1151.962, 662.908 1154.110 C 668.633 1156.259, 673.469 1157.864, 673.656 1157.677 C 673.843 1157.490, 668.710 1153.916, 662.248 1149.736 C 635.681 1132.546, 605.592 1109.222, 587.306 1091.643 C 542.709 1048.769, 521.444 1002.111, 519.335 942.500 C 518.267 912.291, 521.616 885.442, 533.123 832 C 536.971 814.125, 542.200 789.485, 544.742 777.245 L 549.364 754.989 546.432 751.893 C 541.338 746.513, 523.916 732.912, 512.500 725.404 C 490.786 711.122, 467.470 700.366, 442.099 692.929 C 428.989 689.085, 426 688.455, 426 689.533 M 1120 691.500 C 1079.269 702.779, 1043.080 722.623, 1012.208 750.609 L 1007.917 754.500 1011.383 771.500 C 1013.289 780.850, 1017.545 800.875, 1020.839 816 C 1034.711 879.681, 1036.926 894.014, 1037.702 925.124 C 1038.310 949.503, 1037.337 963.546, 1033.874 980.331 C 1020.629 1044.535, 982.841 1091.195, 898.505 1147.481 C 889.708 1153.352, 882.338 1158.329, 882.127 1158.540 C 881.915 1158.751, 885.288 1157.557, 889.621 1155.885 C 893.955 1154.214, 911.985 1147.939, 929.688 1141.941 C 969.059 1128.603, 982.818 1123.214, 1003.585 1112.996 C 1052.900 1088.733, 1084.809 1056.436, 1096.945 1018.500 C 1107.411 985.783, 1108.248 953.333, 1100.956 863 C 1099.335 842.925, 1098.007 822.191, 1098.005 816.924 C 1097.988 780.974, 1110.077 732.754, 1128.135 696.750 C 1132.652 687.744, 1132.926 687.921, 1120 691.500 M 873.500 1185.107 C 864.700 1188.965, 855.250 1193.076, 852.500 1194.241 C 849.750 1195.407, 847.328 1196.489, 847.118 1196.645 C 846.432 1197.157, 860.980 1212.291, 871.353 1221.858 C 890.907 1239.891, 908.565 1252.841, 928.750 1263.952 C 934.938 1267.357, 940 1270.404, 940 1270.722 C 940 1271.041, 933.925 1284.015, 926.500 1299.555 C 919.075 1315.094, 913 1328.076, 913 1328.404 C 913 1328.732, 935.629 1329, 963.287 1329 L 1013.574 1329 1030.186 1299.535 C 1043.477 1275.961, 1046.468 1269.980, 1045.149 1269.617 C 1044.242 1269.368, 1040.848 1268.862, 1037.607 1268.492 C 1029.566 1267.575, 1010.417 1262.805, 999.500 1258.998 C 994.550 1257.272, 983.750 1252.567, 975.500 1248.542 C 945.411 1233.863, 918.449 1212.807, 897.905 1187.944 C 893.385 1182.475, 889.645 1178.021, 889.594 1178.046 C 889.542 1178.071, 882.300 1181.249, 873.500 1185.107 M 664.127 1183.473 C 659.258 1190.253, 640.739 1209.221, 631.082 1217.320 C 607.233 1237.319, 580.386 1252.107, 551.080 1261.387 C 539.579 1265.029, 521.284 1269, 516.008 1269 C 514.419 1269, 512.855 1269.426, 512.533 1269.947 C 512.211 1270.468, 519.280 1283.856, 528.241 1299.697 L 544.536 1328.500 594.768 1328.759 C 627.122 1328.926, 645 1328.669, 645 1328.037 C 645 1327.498, 638.925 1314.365, 631.500 1298.853 C 624.075 1283.341, 618 1270.542, 618 1270.411 C 618 1270.280, 622.388 1267.808, 627.750 1264.918 C 646.944 1254.574, 662.864 1243.283, 681.848 1226.552 C 694.144 1215.716, 711.407 1198.074, 710.552 1197.219 C 709.139 1195.805, 670.099 1179, 668.230 1179 C 667.740 1179, 665.894 1181.013, 664.127 1183.473 M 725.500 1213.172 C 716.633 1223.448, 695.355 1243.670, 683 1253.562 C 677.775 1257.745, 667.425 1265.244, 660 1270.225 C 652.575 1275.207, 646.500 1279.627, 646.500 1280.047 C 646.500 1280.468, 651.648 1291.658, 657.939 1304.915 L 669.378 1329.018 718.939 1328.759 L 768.500 1328.500 768.759 1274.768 L 769.017 1221.036 764.844 1218.402 C 761.115 1216.047, 734.840 1204.955, 733.169 1205.030 C 732.801 1205.046, 729.350 1208.710, 725.500 1213.172 M 815.500 1208.094 C 811.100 1209.733, 803.563 1212.932, 798.750 1215.203 L 790 1219.332 790 1274.175 L 790 1329.019 839.526 1328.759 L 889.052 1328.500 900.526 1304.599 C 906.837 1291.453, 912 1280.347, 912 1279.920 C 912 1279.492, 908.513 1276.973, 904.250 1274.321 C 882.057 1260.516, 853.994 1236.709, 835 1215.574 C 829.775 1209.760, 825.050 1205.028, 824.500 1205.058 C 823.950 1205.089, 819.900 1206.455, 815.500 1208.094" stroke="none" fill="#f7f139" fill-rule="evenodd"/><path d="M 750 1.090 C 701.727 3.054, 651.855 9.538, 608 19.552 C 599.475 21.499, 591.038 23.355, 589.250 23.677 L 586 24.262 585.859 45.381 C 585.781 56.996, 585.443 77.909, 585.109 91.854 L 584.500 117.208 569.500 121.958 C 526.438 135.593, 475.761 157.777, 438.500 179.302 L 425.500 186.812 393.494 154.906 C 375.891 137.358, 361.004 123, 360.411 123 C 358.924 123, 329.260 143.234, 314.579 154.262 C 283.522 177.594, 262.120 195.996, 234.636 223 C 193.093 263.819, 159.690 304.005, 129.459 349.540 C 119.204 364.987, 118.027 367.195, 119.188 368.806 C 119.910 369.807, 133.920 385.079, 150.322 402.746 C 166.725 420.412, 180.161 435.147, 180.181 435.492 C 180.200 435.836, 176.101 443.705, 171.070 452.978 C 148.411 494.748, 126.602 548.593, 114.508 592.627 L 111.726 602.755 66.404 603.170 C 41.477 603.398, 20.786 603.880, 20.425 604.241 C 19.461 605.206, 16.365 619.042, 13.010 637.381 C -4.302 732.006, -4.409 824.319, 12.683 920.750 L 15.385 936 18.614 936 C 27.211 936, 106.401 939.130, 106.988 939.493 C 107.358 939.721, 108.234 942.517, 108.934 945.704 C 111.053 955.348, 120.567 987.583, 125.845 1003 C 136.331 1033.631, 147.160 1059.309, 162.671 1090.325 L 172.085 1109.150 161.117 1120.825 C 155.084 1127.246, 146.482 1136.100, 142 1140.500 C 137.518 1144.900, 128.021 1154.648, 120.894 1162.162 L 107.936 1175.825 113.412 1184.856 C 159.618 1261.055, 222.727 1332.420, 294.658 1389.811 C 312.946 1404.403, 349.612 1430.941, 351.536 1430.980 C 352.106 1430.991, 367.113 1416.744, 384.884 1399.320 C 415.638 1369.167, 417.298 1367.707, 419.347 1369.032 C 420.531 1369.797, 428.446 1374.417, 436.935 1379.298 C 475.292 1401.355, 519.768 1421.209, 562.607 1435.398 L 576.714 1440.070 577.447 1486.285 C 577.850 1511.703, 578.306 1532.628, 578.459 1532.785 C 579.004 1533.344, 606.752 1539.916, 621.500 1542.979 C 668.410 1552.723, 713.264 1557.625, 765 1558.663 C 833.258 1560.032, 897.056 1553.060, 964.250 1536.887 L 977 1533.818 977.003 1504.659 C 977.005 1488.622, 977.301 1467.735, 977.661 1458.244 L 978.315 1440.989 988.408 1437.890 C 1032.772 1424.269, 1093.245 1397.027, 1132.631 1372.920 L 1139.316 1368.828 1171.619 1401.119 L 1203.922 1433.411 1216.211 1425.026 C 1288.796 1375.499, 1353.359 1313.390, 1406.469 1242 C 1416.897 1227.983, 1437.711 1197.110, 1445.423 1184.222 L 1449.179 1177.944 1433.162 1161.222 C 1424.353 1152.025, 1413.030 1140.450, 1408 1135.500 C 1402.970 1130.550, 1395.747 1123.076, 1391.949 1118.892 L 1385.043 1111.283 1393.544 1094.731 C 1418.167 1046.791, 1436.090 998.716, 1449.979 943.360 L 1451.018 939.220 1462.759 938.611 C 1469.217 938.276, 1489.800 937.501, 1508.500 936.889 C 1527.200 936.276, 1542.615 935.673, 1542.756 935.548 C 1543.808 934.617, 1550.324 894.100, 1552.896 872.500 C 1556.992 838.097, 1557.501 827.642, 1557.468 778.500 C 1557.431 723.421, 1556.141 705.242, 1548.917 658 C 1546.702 643.519, 1539.133 604.805, 1538.366 604.034 C 1538.110 603.778, 1517.352 603.328, 1492.237 603.034 L 1446.573 602.500 1445.633 599 C 1432.288 549.290, 1409.820 493.651, 1384.506 447.632 C 1380.310 440.004, 1377.091 433.254, 1377.353 432.632 C 1377.614 432.009, 1391.030 417.289, 1407.164 399.919 C 1423.299 382.550, 1437.110 367.596, 1437.855 366.690 C 1439.041 365.248, 1438.129 363.400, 1430.606 351.988 C 1373.632 265.573, 1300.517 191.778, 1213.143 132.501 L 1195.786 120.725 1163.637 152.863 C 1145.956 170.538, 1131.130 185, 1130.692 185 C 1130.253 185, 1125.306 182.368, 1119.697 179.152 C 1081.118 157.027, 1037.649 137.841, 994.500 123.894 C 982.400 119.983, 971.938 116.621, 971.250 116.423 C 970.340 116.161, 969.962 112.450, 969.861 102.781 C 969.785 95.477, 969.448 74.650, 969.111 56.500 L 968.500 23.500 949.500 19.270 C 904.722 9.302, 856.086 2.896, 814.720 1.519 C 781.099 0.399, 768.952 0.318, 750 1.090 M 759.725 79.802 L 740.109 100.500 740.054 126.750 L 740 153 779 153 L 818 153 818 126.716 L 818 100.433 806.808 88.466 C 800.653 81.885, 791.954 72.586, 787.478 67.802 L 779.341 59.103 759.725 79.802 M 729 177.440 C 729 179.331, 725.159 284.294, 720.465 410.690 C 715.770 537.085, 712.058 641.899, 712.215 643.610 C 712.485 646.559, 712.921 646.144, 720.660 635.569 L 728.819 624.420 732.899 423.460 C 735.143 312.932, 737.274 211.588, 737.635 198.250 L 738.291 174 733.646 174 C 729.019 174, 729 174.014, 729 177.440 M 758.996 183.695 C 758.993 189.088, 757.195 280.350, 755 386.500 C 752.805 492.650, 751.007 583.240, 751.004 587.811 L 751 596.122 760.002 585.442 L 769.005 574.763 768.752 374.632 L 768.500 174.500 763.750 174.195 L 759 173.890 758.996 183.695 M 790 374.389 L 790 574.777 798.743 585.312 C 803.552 591.107, 807.528 595.769, 807.580 595.674 C 807.631 595.578, 805.747 503.475, 803.393 391 C 801.039 278.525, 799.088 183.688, 799.057 180.250 L 799 174 794.500 174 L 790 174 790 374.389 M 820.411 186.750 C 820.738 193.762, 822.823 294.225, 825.046 410 C 827.268 525.775, 829.441 621.625, 829.874 623 C 830.536 625.099, 846.164 647.362, 846.522 646.715 C 846.588 646.597, 842.697 543.675, 837.876 418 C 833.056 292.325, 829.086 186.012, 829.056 181.750 L 829 174 824.409 174 L 819.819 174 820.411 186.750 M 697 240.109 C 641.900 248.877, 591.702 264.529, 543.199 288.067 C 498.397 309.809, 462.486 333.219, 424 365.773 C 409.836 377.753, 379.499 407.872, 367.365 422 C 318.422 478.985, 284.198 539.157, 261.006 609 C 242.328 665.247, 233.786 718.878, 233.771 780 C 233.758 828.324, 238.761 868.421, 250.675 915.500 C 284.852 1050.546, 373.028 1170.103, 493.268 1244.428 L 501.036 1249.229 507.768 1248.532 C 546.292 1244.543, 585.871 1226.972, 619.224 1199.050 C 631.167 1189.053, 647.340 1171.755, 645.842 1170.583 C 645.654 1170.436, 633.125 1166.167, 618 1161.097 C 582.768 1149.288, 563.590 1141.686, 543.013 1131.376 C 488.564 1104.094, 454.519 1068.887, 440.125 1024.972 C 432.890 1002.902, 430.579 984.401, 430.631 949 C 430.674 920.511, 431.308 908.803, 435.641 856.500 C 438.580 821.023, 438.441 803.092, 435.076 783.745 C 428.341 745.014, 413.217 706.709, 391.522 673.437 C 387.385 667.091, 384 661.541, 384 661.104 C 384 659.745, 421.738 665.768, 436.804 669.531 C 475.870 679.291, 509.076 695.227, 541.250 719.657 L 551 727.060 551 722.254 C 551 699.204, 539.826 656.895, 525.870 627.103 C 523.192 621.384, 521 616.254, 521 615.702 C 521 614.410, 541.924 615.544, 555.500 617.573 C 600.393 624.282, 645.178 645.602, 683.770 678.637 C 686.119 680.648, 688.246 682.087, 688.497 681.837 C 688.922 681.412, 705 254.805, 705 243.951 C 705 240.595, 704.597 239.038, 703.750 239.117 C 703.063 239.181, 700.025 239.628, 697 240.109 M 852.966 242.705 C 852.906 249.356, 869.281 681.484, 869.608 681.878 C 869.781 682.085, 872.272 680.142, 875.145 677.560 C 882.715 670.753, 897.517 659.800, 908.212 653.090 C 945.685 629.578, 982.685 617.613, 1024.944 615.341 L 1037.092 614.688 1033.437 622.594 C 1018.334 655.262, 1008.836 689.095, 1006.402 718.897 C 1005.612 728.572, 1004.681 728.525, 1016.500 719.413 C 1049.452 694.010, 1090.250 675.398, 1131.500 666.950 C 1141.884 664.823, 1173.173 660.066, 1173.783 660.521 C 1173.938 660.637, 1170.183 666.755, 1165.437 674.116 C 1139.744 713.972, 1123.307 760.861, 1119.906 804 C 1118.713 819.134, 1118.617 817.167, 1123.517 878 C 1128.692 942.248, 1127.935 982.536, 1121.004 1011.722 C 1108.947 1062.488, 1074.080 1101.559, 1014 1131.627 C 994.070 1141.601, 977.269 1148.259, 942.421 1159.993 C 926.047 1165.507, 912.449 1170.218, 912.204 1170.463 C 910.879 1171.788, 932.473 1193.902, 944.500 1203.537 C 974.433 1227.518, 1012.457 1244.056, 1046.800 1248.031 L 1057.100 1249.223 1063.300 1245.429 C 1138.040 1199.696, 1201.796 1135.361, 1247.062 1060 C 1324.873 930.457, 1345.290 774.610, 1303.524 629.010 C 1245.892 428.098, 1074.581 275.343, 869 241.551 C 863.775 240.693, 858.038 239.747, 856.250 239.450 C 853.064 238.920, 852.999 238.984, 852.966 242.705 M 762.610 615.581 C 684.369 713.540, 641.579 804.436, 633.025 890.856 C 631.514 906.121, 631.766 938.515, 633.512 953.442 C 637.644 988.764, 646.550 1018.177, 663.506 1052.500 C 677.802 1081.438, 695.815 1108.243, 719.619 1136 C 730.478 1148.661, 762.696 1181.839, 773.137 1191.111 L 779.774 1197.005 797.137 1180.646 C 862.590 1118.979, 902.438 1055.676, 918.405 988 C 927.237 950.565, 928.315 906.996, 921.423 866 C 908.022 786.278, 865.549 701.607, 795.079 614.126 C 788.711 606.220, 782.559 598.606, 781.409 597.207 L 779.319 594.662 762.610 615.581 M 558.990 653.678 C 568.380 682.659, 572.229 705.056, 572.193 730.500 C 572.165 750.457, 571.591 753.939, 558.022 816.500 C 553.132 839.050, 548.230 862.225, 547.129 868 C 535.079 931.228, 538.549 977.267, 558.473 1018.500 C 574.715 1052.113, 602.327 1081.395, 650.390 1115.974 C 671.972 1131.501, 705.817 1152.991, 702.965 1149.357 C 702.164 1148.335, 698.546 1143.900, 694.926 1139.500 C 652.171 1087.539, 625.109 1031.436, 615.097 974 C 611.510 953.424, 610.658 942.877, 610.694 919.500 C 610.756 879.765, 616.163 847.316, 629.690 805.500 C 638.697 777.657, 654.810 741.240, 670.397 713.500 L 677.139 701.500 671.820 696.655 C 656.877 683.047, 632.270 666.552, 613.500 657.564 C 596.785 649.559, 573.980 642.106, 558.344 639.538 L 554.187 638.856 558.990 653.678 M 989.272 641.507 C 953.299 649.833, 918.338 668.409, 885.553 696.618 L 880.767 700.736 886.830 711.618 C 896.122 728.296, 911.182 759.869, 917.540 776 C 931.305 810.925, 939.666 842.545, 944.644 878.500 C 947.387 898.318, 947.159 944.294, 944.221 963.722 C 934.729 1026.494, 909.784 1082.167, 867.120 1135.803 C 857.120 1148.375, 856.858 1148.858, 861.573 1146.011 C 910.340 1116.573, 955.181 1080.705, 975.982 1054.500 C 1014.533 1005.930, 1025.015 952.889, 1011.455 875 C 1010.066 867.025, 1004.924 842.050, 1000.027 819.500 C 984.953 750.079, 985.509 753.506, 985.506 730 C 985.502 707.729, 986.690 697.910, 992.032 676.034 C 994.356 666.515, 1000.331 646.541, 1002.736 640.250 C 1003.391 638.536, 1001.241 638.737, 989.272 641.507 M 426 689.533 C 426 689.827, 427.075 692.189, 428.390 694.783 C 436.268 710.333, 446.099 736.788, 450.952 755.500 C 459.384 788.009, 460.659 811.698, 456.629 861 C 452.341 913.464, 451.749 926.322, 452.250 956.131 C 452.639 979.250, 453.125 986.702, 454.872 996.398 C 457.264 1009.670, 462.268 1025.595, 467.056 1035.171 C 482.305 1065.675, 513.682 1093.600, 555.688 1114.052 C 573.960 1122.949, 586.454 1127.822, 621.067 1139.552 C 638.355 1145.410, 657.184 1151.962, 662.908 1154.110 C 668.633 1156.259, 673.469 1157.864, 673.656 1157.677 C 673.843 1157.490, 668.710 1153.916, 662.248 1149.736 C 635.681 1132.546, 605.592 1109.222, 587.306 1091.643 C 542.709 1048.769, 521.444 1002.111, 519.335 942.500 C 518.267 912.291, 521.616 885.442, 533.123 832 C 536.971 814.125, 542.200 789.485, 544.742 777.245 L 549.364 754.989 546.432 751.893 C 541.338 746.513, 523.916 732.912, 512.500 725.404 C 490.786 711.122, 467.470 700.366, 442.099 692.929 C 428.989 689.085, 426 688.455, 426 689.533 M 1120 691.500 C 1079.269 702.779, 1043.080 722.623, 1012.208 750.609 L 1007.917 754.500 1011.383 771.500 C 1013.289 780.850, 1017.545 800.875, 1020.839 816 C 1034.711 879.681, 1036.926 894.014, 1037.702 925.124 C 1038.310 949.503, 1037.337 963.546, 1033.874 980.331 C 1020.629 1044.535, 982.841 1091.195, 898.505 1147.481 C 889.708 1153.352, 882.338 1158.329, 882.127 1158.540 C 881.915 1158.751, 885.288 1157.557, 889.621 1155.885 C 893.955 1154.214, 911.985 1147.939, 929.688 1141.941 C 969.059 1128.603, 982.818 1123.214, 1003.585 1112.996 C 1052.900 1088.733, 1084.809 1056.436, 1096.945 1018.500 C 1107.411 985.783, 1108.248 953.333, 1100.956 863 C 1099.335 842.925, 1098.007 822.191, 1098.005 816.924 C 1097.988 780.974, 1110.077 732.754, 1128.135 696.750 C 1132.652 687.744, 1132.926 687.921, 1120 691.500 M 873.500 1185.107 C 864.700 1188.965, 855.250 1193.076, 852.500 1194.241 C 849.750 1195.407, 847.328 1196.489, 847.118 1196.645 C 846.432 1197.157, 860.980 1212.291, 871.353 1221.858 C 890.907 1239.891, 908.565 1252.841, 928.750 1263.952 C 934.938 1267.357, 940 1270.404, 940 1270.722 C 940 1271.041, 933.925 1284.015, 926.500 1299.555 C 919.075 1315.094, 913 1328.076, 913 1328.404 C 913 1328.732, 935.629 1329, 963.287 1329 L 1013.574 1329 1030.186 1299.535 C 1043.477 1275.961, 1046.468 1269.980, 1045.149 1269.617 C 1044.242 1269.368, 1040.848 1268.862, 1037.607 1268.492 C 1029.566 1267.575, 1010.417 1262.805, 999.500 1258.998 C 994.550 1257.272, 983.750 1252.567, 975.500 1248.542 C 945.411 1233.863, 918.449 1212.807, 897.905 1187.944 C 893.385 1182.475, 889.645 1178.021, 889.594 1178.046 C 889.542 1178.071, 882.300 1181.249, 873.500 1185.107 M 664.127 1183.473 C 659.258 1190.253, 640.739 1209.221, 631.082 1217.320 C 607.233 1237.319, 580.386 1252.107, 551.080 1261.387 C 539.579 1265.029, 521.284 1269, 516.008 1269 C 514.419 1269, 512.855 1269.426, 512.533 1269.947 C 512.211 1270.468, 519.280 1283.856, 528.241 1299.697 L 544.536 1328.500 594.768 1328.759 C 627.122 1328.926, 645 1328.669, 645 1328.037 C 645 1327.498, 638.925 1314.365, 631.500 1298.853 C 624.075 1283.341, 618 1270.542, 618 1270.411 C 618 1270.280, 622.388 1267.808, 627.750 1264.918 C 646.944 1254.574, 662.864 1243.283, 681.848 1226.552 C 694.144 1215.716, 711.407 1198.074, 710.552 1197.219 C 709.139 1195.805, 670.099 1179, 668.230 1179 C 667.740 1179, 665.894 1181.013, 664.127 1183.473 M 725.500 1213.172 C 716.633 1223.448, 695.355 1243.670, 683 1253.562 C 677.775 1257.745, 667.425 1265.244, 660 1270.225 C 652.575 1275.207, 646.500 1279.627, 646.500 1280.047 C 646.500 1280.468, 651.648 1291.658, 657.939 1304.915 L 669.378 1329.018 718.939 1328.759 L 768.500 1328.500 768.759 1274.768 L 769.017 1221.036 764.844 1218.402 C 761.115 1216.047, 734.840 1204.955, 733.169 1205.030 C 732.801 1205.046, 729.350 1208.710, 725.500 1213.172 M 815.500 1208.094 C 811.100 1209.733, 803.563 1212.932, 798.750 1215.203 L 790 1219.332 790 1274.175 L 790 1329.019 839.526 1328.759 L 889.052 1328.500 900.526 1304.599 C 906.837 1291.453, 912 1280.347, 912 1279.920 C 912 1279.492, 908.513 1276.973, 904.250 1274.321 C 882.057 1260.516, 853.994 1236.709, 835 1215.574 C 829.775 1209.760, 825.050 1205.028, 824.500 1205.058 C 823.950 1205.089, 819.900 1206.455, 815.500 1208.094" stroke="none" fill="#449fd3" fill-rule="evenodd"/></svg>